<svg width="755" height="174" viewBox="0 0 755 174" fill="none" xmlns="http://www.w3.org/2000/svg">
<path d="M338.869 146.769C336.991 139.216 328.136 137.825 323.634 143.897C320.165 148.558 320.652 147.246 317.542 143.599C312.781 138.103 304.344 138.997 302.286 146.481C300.299 153.696 305.775 159.957 311.042 164.032C313.41 165.862 315.904 167.522 318.506 169.001C319.023 169.417 319.661 169.657 320.325 169.684C320.988 169.71 321.643 169.523 322.193 169.15C327.102 166.695 332.131 163.247 335.579 158.924C338.273 155.535 339.922 150.993 338.869 146.769Z" fill="white"/>
<path d="M41.13 97.9336H12.657V5.42871H1.16846V108.607H41.13V97.9336Z" fill="white"/>
<path d="M120.914 3.63989C91.4872 3.63989 67.1385 27.591 67.1385 57.1472C67.1385 86.7034 91.4872 110.376 120.914 110.376C150.341 110.376 174.69 86.8426 174.69 57.1472C174.69 27.4518 150.331 3.63989 120.914 3.63989ZM120.914 99.7126C97.5097 99.7126 78.6271 80.2834 78.6271 56.9783C78.6271 51.425 79.7209 45.9262 81.846 40.7957C83.9712 35.6652 87.086 31.0035 91.0127 27.0768C94.9394 23.1501 99.6011 20.0352 104.732 17.9101C109.862 15.785 115.361 14.6912 120.914 14.6912C126.467 14.6912 131.966 15.785 137.097 17.9101C142.227 20.0352 146.889 23.1501 150.816 27.0768C154.742 31.0035 157.857 35.6652 159.982 40.7957C162.107 45.9262 163.201 51.425 163.201 56.9783C163.162 80.2834 144.279 99.7126 120.914 99.7126Z" fill="white"/>
<path d="M242.448 84.1095L213.021 5.42871H200.569L242.448 114.759L284.318 5.42871H271.865L242.448 84.1095Z" fill="white"/>
<path d="M315.395 108.607H368.902V97.9336H326.894V57.4254H367.67V46.7518H326.894V16.1023H368.902V5.42871H315.395V108.607Z" fill="white"/>
<path d="M443.22 49.4847L436.373 46.5033C429.416 43.3628 420.223 39.2583 420.223 30.3636C420.223 20.9223 428.174 14.3532 437.337 14.3532C446.092 14.3532 451.012 18.4577 455.126 25.5734L464.289 19.6602C461.766 14.7766 457.934 10.6915 453.221 7.86209C448.509 5.03272 443.102 3.57074 437.605 3.63979C422.281 3.63979 408.784 13.906 408.784 29.9164C408.784 44.6945 419.18 50.8562 431.225 56.3322L437.456 59.0652C447.037 63.4479 456.478 67.5524 456.478 79.5975C456.478 91.2252 446.351 99.7125 435.27 99.7125C424.189 99.7125 416.119 91.0861 414.598 80.5516L403.378 83.702C406.658 99.7125 418.971 110.386 435.538 110.386C453.427 110.386 467.966 96.562 467.966 78.5043C467.986 62.1162 456.627 55.3781 443.22 49.4847Z" fill="white"/>
<path d="M504.668 108.607H558.175V97.9336H516.167V57.4254H556.943V46.7518H516.167V16.1023H558.175V5.42871H504.668V108.607Z" fill="white"/>
<path d="M588.01 108.607H600.602L613.055 79.3187H657.091L669.265 108.607H681.996L635.634 0.498779L588.01 108.607ZM617.706 68.6451L635.366 27.3319L652.609 68.655L617.706 68.6451Z" fill="white"/>
<path d="M693.146 16.1023H718.052V108.607H729.54V16.1023H754.724V5.42871H693.146V16.1023Z" fill="white"/>
<path fill-rule="evenodd" clip-rule="evenodd" d="M87.5713 136.961V162.773L63.0457 136.91L63.0395 136.903L61.0562 134.773V170.84H65.3694V145.461L91.8845 173.645V136.961H87.5713Z" fill="white"/>
<path fill-rule="evenodd" clip-rule="evenodd" d="M123.846 166.646V136.961H119.533V170.84H131.886V166.646H123.846Z" fill="white"/>
<path fill-rule="evenodd" clip-rule="evenodd" d="M160.717 136.961H156.403V170.84H160.717V136.961Z" fill="white"/>
<path fill-rule="evenodd" clip-rule="evenodd" d="M192.678 145.461L217.184 171.518L217.187 171.521L219.183 173.66V136.961H214.87V162.772L190.348 136.903L190.342 136.897L188.355 134.839V170.84H192.678V145.461Z" fill="white"/>
<path fill-rule="evenodd" clip-rule="evenodd" d="M246.841 136.961V170.84H264.213V166.646H251.154V154.512H263.885V150.318H251.154V141.145H264.213V136.961H246.841Z" fill="white"/>
<path fill-rule="evenodd" clip-rule="evenodd" d="M11.0154 137.74C13.1636 136.897 15.4583 136.49 17.7653 136.543C20.0724 136.49 22.3671 136.897 24.5152 137.74C26.671 138.587 28.6355 139.856 30.2933 141.474C31.951 143.091 33.2684 145.024 34.1678 147.158C35.0673 149.292 35.5307 151.585 35.5307 153.901C35.5307 156.217 35.0673 158.509 34.1678 160.644C33.2684 162.778 31.951 164.71 30.2933 166.328C28.6355 167.945 26.671 169.215 24.5152 170.061C22.3671 170.905 20.0724 171.312 17.7653 171.258C15.4583 171.312 13.1636 170.905 11.0154 170.061C8.85971 169.215 6.89514 167.945 5.23741 166.328C3.57969 164.71 2.26231 162.778 1.36284 160.644C0.463374 158.509 0 156.217 0 153.901C0 151.585 0.463375 149.292 1.36284 147.158C2.26231 145.024 3.57969 143.091 5.23741 141.474C6.89514 139.856 8.85971 138.587 11.0154 137.74ZM17.7917 167.074L17.7653 167.073L17.739 167.074C15.9797 167.121 14.2289 166.814 12.5899 166.173C10.9508 165.532 9.45682 164.569 8.19598 163.342C6.93515 162.114 5.93304 160.646 5.2488 159.024C4.56455 157.403 4.21202 155.661 4.21202 153.901C4.21202 152.141 4.56455 150.399 5.2488 148.777C5.93304 147.156 6.93515 145.688 8.19598 144.46C9.45682 143.232 10.9508 142.269 12.5899 141.628C14.2289 140.987 15.9797 140.681 17.739 140.727L17.7653 140.728L17.7917 140.727C19.551 140.681 21.3018 140.987 22.9408 141.628C24.5799 142.269 26.0739 143.232 27.3347 144.46C28.5955 145.688 29.5976 147.156 30.2819 148.777C30.9661 150.399 31.3187 152.141 31.3187 153.901C31.3187 155.661 30.9661 157.403 30.2819 159.024C29.5976 160.646 28.5955 162.114 27.3347 163.342C26.0739 164.569 24.5799 165.532 22.9408 166.173C21.3018 166.814 19.551 167.121 17.7917 167.074ZM32.3125 153.901C32.3125 153.9 32.3125 153.901 32.3125 153.901Z" fill="white"/>
<path fill-rule="evenodd" clip-rule="evenodd" d="M385.295 134.006L370.936 169.27L370.366 170.84H374.834L379.108 160.504H391.42L395.288 169.991V170.89H400.17L385.295 134.006ZM380.805 156.281L385.287 145.262L389.731 156.281H380.805Z" fill="white"/>
<path fill-rule="evenodd" clip-rule="evenodd" d="M443.051 161.292C443.238 160.024 443.24 158.647 443.24 157.205L443.23 136.971H447.543V157.95C447.544 161.127 447.544 164.234 445.156 167.191L445.132 167.222L445.104 167.25C443.891 168.531 442.429 169.55 440.808 170.247C439.187 170.944 437.441 171.304 435.677 171.304C433.913 171.304 432.167 170.944 430.546 170.247C428.926 169.55 427.464 168.531 426.25 167.25L426.223 167.222L426.198 167.191C423.8 164.224 423.801 161.117 423.801 157.938L423.801 136.961H428.114V157.205C428.114 158.667 428.116 160.059 428.304 161.329C428.49 162.593 428.849 163.64 429.495 164.443C430.154 165.262 431.169 165.922 432.325 166.377C433.477 166.832 434.692 167.054 435.677 167.054C436.67 167.054 437.887 166.844 439.034 166.398C440.185 165.951 441.194 165.294 441.851 164.454C442.506 163.616 442.865 162.551 443.051 161.292Z" fill="white"/>
<path d="M501.939 141.075C498.889 138.215 494.879 136.598 490.698 136.543L490.692 136.543C486.044 136.51 481.572 138.323 478.259 141.584C474.947 144.845 473.064 149.288 473.025 153.937V153.945C473.025 163.356 481.1 171.257 490.636 171.257L490.643 171.257C494.775 171.227 498.762 169.734 501.897 167.042L501.92 167.022L502.303 166.65V160.239L500.283 162.692C499.033 164.033 497.53 165.115 495.86 165.873C494.192 166.631 492.39 167.053 490.559 167.113C487.056 166.976 483.728 165.54 481.224 163.084L481.215 163.075C480.005 161.919 479.038 160.532 478.373 158.996C477.708 157.463 477.356 155.813 477.338 154.142C477.366 150.629 478.764 147.266 481.235 144.768C483.703 142.272 487.046 140.837 490.554 140.767C492.405 140.812 494.225 141.245 495.898 142.038C497.574 142.833 499.063 143.972 500.27 145.381L500.276 145.388L502.303 147.85V141.414L501.939 141.075Z" fill="white"/>
<path d="M525.896 136.961V141.145H534.056V170.84H538.369V141.145H546.538V136.961H525.896Z" fill="white"/>
<path d="M575.369 136.961H571.055V170.84H575.369V136.961Z" fill="white"/>
<path fill-rule="evenodd" clip-rule="evenodd" d="M618.655 136.543L618.646 136.543L618.637 136.543C615.212 136.587 611.877 137.643 609.051 139.577C606.225 141.512 604.034 144.239 602.754 147.416C601.474 150.592 601.162 154.077 601.858 157.43C602.554 160.784 604.225 163.856 606.663 166.262C609.101 168.668 612.196 170.298 615.558 170.949C618.921 171.6 622.4 171.242 625.56 169.92C628.719 168.599 631.417 166.372 633.314 163.52C635.211 160.669 636.222 157.32 636.22 153.895V153.886L636.22 153.877C636.135 149.266 634.25 144.872 630.967 141.633C627.685 138.394 623.266 136.567 618.655 136.543ZM618.645 167.073C616.043 167.065 613.501 166.286 611.341 164.835C609.179 163.382 607.496 161.321 606.504 158.913C605.512 156.504 605.256 153.856 605.769 151.302C606.282 148.748 607.54 146.403 609.384 144.564C611.228 142.725 613.577 141.473 616.132 140.968C618.687 140.462 621.335 140.725 623.741 141.724C626.147 142.722 628.203 144.412 629.649 146.578C631.094 148.742 631.866 151.285 631.867 153.887C631.815 157.375 630.404 160.704 627.935 163.167C625.465 165.629 622.132 167.031 618.645 167.073Z" fill="white"/>
<path d="M666.263 145.46L690.768 171.505L690.783 171.521L692.769 173.728V136.961H688.456V162.772L663.94 136.91L663.934 136.903L661.95 134.772V170.84H666.263V145.46Z" fill="white"/>
<path fill-rule="evenodd" clip-rule="evenodd" d="M739.223 156.679C738.468 155.404 737.377 154.361 736.07 153.664L730.088 150.483L729.821 150.355L729.817 150.353C728.532 149.744 727.318 149.161 726.409 148.388C725.541 147.649 725.018 146.793 725.018 145.606V145.598L725.018 145.589C725.007 144.953 725.123 144.321 725.359 143.731C725.596 143.14 725.948 142.603 726.394 142.15C726.841 141.697 727.374 141.338 727.961 141.093C728.548 140.849 729.178 140.724 729.815 140.727L729.825 140.727L729.835 140.727C730.933 140.708 732.015 140.991 732.964 141.544C733.912 142.098 734.691 142.9 735.216 143.865L735.238 143.904L735.973 145.007L739.091 142.43L738.664 141.577L738.649 141.55C737.765 140.025 736.496 138.759 734.968 137.88C733.448 137.006 731.726 136.544 729.973 136.543C728.754 136.482 727.535 136.675 726.394 137.108C725.245 137.545 724.199 138.217 723.324 139.082C722.449 139.946 721.764 140.983 721.314 142.128C720.866 143.263 720.659 144.479 720.705 145.698C720.688 147.048 721.035 148.378 721.71 149.548C722.389 150.726 723.376 151.697 724.565 152.358L724.576 152.365L730.303 155.358L730.881 155.641C732.245 156.306 733.555 156.948 734.535 157.78C735.476 158.579 736.036 159.486 736.04 160.701C735.996 162.413 735.277 164.039 734.039 165.224C732.798 166.411 731.138 167.058 729.421 167.023L729.411 167.023H729.401C725.672 167.023 723.803 164.445 722.851 162.045L722.84 162.018L722.339 160.943L718.9 163.334C719.295 165.224 720.789 167.577 722.886 169.107C724.751 170.468 727 171.203 729.31 171.207C735.232 171.207 740.349 166.56 740.353 160.887C740.368 159.407 739.978 157.952 739.223 156.679Z" fill="white"/>
</svg>
