<svg width="173" height="173" viewBox="0 0 173 173" fill="none" xmlns="http://www.w3.org/2000/svg">
<path fill-rule="evenodd" clip-rule="evenodd" d="M23.6396 48.3122H149.36C153.092 48.3122 156.117 51.3378 156.117 55.07V116.578C156.117 120.311 153.092 123.336 149.36 123.336H23.6397C19.9074 123.336 16.8818 120.311 16.8818 116.578V55.07C16.8818 51.3378 19.9074 48.3122 23.6396 48.3122ZM23.6396 53.7184C22.8932 53.7184 22.2881 54.3236 22.2881 55.07V116.578C22.2881 117.325 22.8932 117.93 23.6397 117.93H149.36C150.106 117.93 150.711 117.325 150.711 116.578V55.07C150.711 54.3236 150.106 53.7184 149.36 53.7184H23.6396Z" fill="#808080"/>
<path fill-rule="evenodd" clip-rule="evenodd" d="M86.4994 109.231C98.8252 109.231 109.083 98.9001 109.083 85.8242C109.083 72.7483 98.8252 62.4176 86.4994 62.4176C74.1736 62.4176 63.916 72.7483 63.916 85.8242C63.916 98.9001 74.1736 109.231 86.4994 109.231ZM86.4994 114.637C101.958 114.637 114.489 101.737 114.489 85.8242C114.489 69.9113 101.958 57.0113 86.4994 57.0113C71.0412 57.0113 58.5098 69.9113 58.5098 85.8242C58.5098 101.737 71.0412 114.637 86.4994 114.637Z" fill="#808080"/>
<path fill-rule="evenodd" clip-rule="evenodd" d="M86.5 93.823C87.9929 93.823 89.2031 95.0333 89.2031 96.5262L89.2031 101.465C89.2031 102.958 87.9929 104.169 86.5 104.169C85.0071 104.169 83.7969 102.958 83.7969 101.465L83.7969 96.5262C83.7969 95.0333 85.0071 93.823 86.5 93.823Z" fill="#808080"/>
<path fill-rule="evenodd" clip-rule="evenodd" d="M86.5 67.4798C87.9929 67.4798 89.2031 68.6901 89.2031 70.183L89.2031 75.1223C89.2031 76.6152 87.9929 77.8254 86.5 77.8254C85.0071 77.8254 83.7969 76.6152 83.7969 75.1223L83.7969 70.183C83.7969 68.6901 85.0071 67.4798 86.5 67.4798Z" fill="#808080"/>
<path fill-rule="evenodd" clip-rule="evenodd" d="M77.698 75.1965C79.0888 73.7063 81.0167 72.8307 83.0697 72.8307H93.36C94.8529 72.8307 96.0631 74.041 96.0631 75.5339C96.0631 77.0268 94.8529 78.237 93.36 78.237H83.0697C82.5756 78.237 82.0605 78.4456 81.6502 78.8852C81.234 79.3312 80.9707 79.9735 80.9707 80.679C80.9707 81.3846 81.234 82.0269 81.6502 82.4728C82.0605 82.9124 82.5756 83.1211 83.0697 83.1211H89.9299C91.983 83.1211 93.9108 83.9966 95.3017 85.4868C96.6866 86.9706 97.4352 88.9457 97.4352 90.9693C97.4352 92.9929 96.6866 94.968 95.3017 96.4519C93.9108 97.9421 91.983 98.8176 89.9299 98.8176H78.2676C76.7747 98.8176 75.5645 97.6074 75.5645 96.1145C75.5645 94.6216 76.7747 93.4114 78.2676 93.4114H89.9299C90.4241 93.4114 90.9391 93.2027 91.3494 92.7631C91.7656 92.3172 92.0289 91.6749 92.0289 90.9693C92.0289 90.2638 91.7656 89.6215 91.3494 89.1755C90.9391 88.7359 90.4241 88.5273 89.9299 88.5273H83.0697C81.0167 88.5273 79.0888 87.6518 77.698 86.1616C76.313 84.6777 75.5645 82.7026 75.5645 80.679C75.5645 78.6554 76.313 76.6803 77.698 75.1965Z" fill="#808080"/>
<path fill-rule="evenodd" clip-rule="evenodd" d="M40.0475 60.5924C41.0583 58.1521 41.5786 55.5366 41.5786 52.8952H46.9848C46.9848 56.2465 46.3247 59.565 45.0422 62.6613C43.7597 65.7575 41.8799 68.5708 39.5102 70.9405C37.1404 73.3103 34.3271 75.1901 31.2309 76.4726C28.1347 77.7551 24.8162 78.4152 21.4648 78.4152V73.0089C24.1062 73.0089 26.7217 72.4887 29.162 71.4778C31.6023 70.467 33.8197 68.9855 35.6874 67.1177C37.5551 65.25 39.0367 63.0327 40.0475 60.5924Z" fill="#808080"/>
<path fill-rule="evenodd" clip-rule="evenodd" d="M40.0475 111.056C41.0583 113.496 41.5786 116.112 41.5786 118.753H46.9848C46.9848 115.402 46.3247 112.083 45.0422 108.987C43.7597 105.891 41.8799 103.078 39.5102 100.708C37.1404 98.3381 34.3271 96.4583 31.2309 95.1758C28.1347 93.8933 24.8162 93.2332 21.4648 93.2332V98.6394C24.1062 98.6394 26.7217 99.1597 29.162 100.171C31.6023 101.181 33.8197 102.663 35.6874 104.531C37.5551 106.398 39.0367 108.616 40.0475 111.056Z" fill="#808080"/>
<path fill-rule="evenodd" clip-rule="evenodd" d="M132.952 111.056C131.941 113.496 131.42 116.112 131.42 118.753H126.014C126.014 115.402 126.674 112.083 127.957 108.987C129.239 105.891 131.119 103.078 133.489 100.708C135.859 98.3381 138.672 96.4583 141.768 95.1758C144.864 93.8933 148.183 93.2332 151.534 93.2332V98.6394C148.893 98.6394 146.277 99.1597 143.837 100.171C141.397 101.181 139.179 102.663 137.312 104.531C135.444 106.398 133.962 108.616 132.952 111.056Z" fill="#808080"/>
<path fill-rule="evenodd" clip-rule="evenodd" d="M132.952 60.5924C131.941 58.1521 131.42 55.5366 131.42 52.8952H126.014C126.014 56.2465 126.674 59.565 127.957 62.6613C129.239 65.7575 131.119 68.5708 133.489 70.9405C135.859 73.3103 138.672 75.1901 141.768 76.4726C144.864 77.7551 148.183 78.4152 151.534 78.4152V73.0089C148.893 73.0089 146.277 72.4887 143.837 71.4778C141.397 70.467 139.179 68.9855 137.312 67.1177C135.444 65.25 133.962 63.0327 132.952 60.5924Z" fill="#808080"/>
</svg>
