<svg width="173" height="173" viewBox="0 0 173 173" fill="none" xmlns="http://www.w3.org/2000/svg">
<path d="M157.457 26.1825H15.543C14.9157 26.1825 14.3141 26.4317 13.8705 26.8753C13.4269 27.3188 13.1777 27.9204 13.1777 28.5477V128.571C13.1777 129.199 13.4269 129.8 13.8705 130.244C14.3141 130.688 14.9157 130.937 15.543 130.937H74.8428V142.087H64.1992C63.5719 142.087 62.9703 142.336 62.5267 142.78C62.0832 143.223 61.834 143.825 61.834 144.452C61.834 145.08 62.0832 145.681 62.5267 146.125C62.9703 146.568 63.5719 146.818 64.1992 146.818H108.801C109.428 146.818 110.03 146.568 110.473 146.125C110.917 145.681 111.166 145.08 111.166 144.452C111.166 143.825 110.917 143.223 110.473 142.78C110.03 142.336 109.428 142.087 108.801 142.087H98.1572V130.937H157.457C158.084 130.937 158.686 130.688 159.13 130.244C159.573 129.8 159.822 129.199 159.822 128.571V28.5477C159.822 27.9204 159.573 27.3188 159.13 26.8753C158.686 26.4317 158.084 26.1825 157.457 26.1825ZM93.4268 142.087H79.5732V130.937H93.4268V142.087ZM155.092 126.206H17.9082V30.913H155.092V126.206Z" fill="#808080"/>
<path d="M26.4473 116.328H146.551C147.178 116.328 147.78 116.078 148.224 115.635C148.667 115.191 148.916 114.59 148.916 113.962V38.41C148.916 37.7827 148.667 37.1811 148.224 36.7376C147.78 36.294 147.178 36.0448 146.551 36.0448H26.4473C25.82 36.0448 25.2184 36.294 24.7748 36.7376C24.3312 37.1811 24.082 37.7827 24.082 38.41V113.962C24.082 114.59 24.3312 115.191 24.7748 115.635C25.2184 116.078 25.82 116.328 26.4473 116.328ZM28.8125 40.7753H144.186V111.597H28.8125V40.7753Z" fill="#808080"/>
<rect x="48" y="54" width="77" height="5" rx="2.5" fill="#808080"/>
<rect x="48" y="64" width="77" height="5" rx="2.5" fill="#808080"/>
<rect x="48" y="74" width="77" height="5" rx="2.5" fill="#808080"/>
<rect x="48" y="84" width="77" height="5" rx="2.5" fill="#808080"/>
<rect x="65" y="94" width="43" height="5" rx="2.5" fill="#ED412C"/>
</svg>
