<svg width="158" height="158" viewBox="0 0 158 158" fill="none" xmlns="http://www.w3.org/2000/svg">
<rect width="158" height="158" rx="79" fill="#FFEBE9"/>
<path d="M103.25 63C103.25 56.4359 100.642 50.1406 96.0009 45.4991C91.3594 40.8576 85.0641 38.25 78.5 38.25C71.9359 38.25 65.6406 40.8576 60.9991 45.4991C56.3576 50.1406 53.75 56.4359 53.75 63C53.75 91.875 41.375 100.125 41.375 100.125H115.625C115.625 100.125 103.25 91.875 103.25 63Z" stroke="#ED412C" stroke-width="4" stroke-linecap="round" stroke-linejoin="round"/>
<path d="M85.6363 116.625C84.9111 117.875 83.8701 118.913 82.6177 119.634C81.3653 120.356 79.9453 120.735 78.5 120.735C77.0547 120.735 75.6348 120.356 74.3823 119.634C73.1299 118.913 72.089 117.875 71.3638 116.625" stroke="#ED412C" stroke-width="4" stroke-linecap="round" stroke-linejoin="round"/>
</svg>
