<svg width="90" height="90" viewBox="0 0 90 90" fill="none" xmlns="http://www.w3.org/2000/svg">
<path d="M19.125 54.3669H43.6521C43.9785 54.3669 44.2914 54.2373 44.5222 54.0066C44.7529 53.7758 44.8826 53.4628 44.8826 53.1365C44.8826 52.8101 44.7529 52.4972 44.5222 52.2664C44.2914 52.0356 43.9785 51.906 43.6521 51.906H19.125C18.7987 51.906 18.4857 52.0356 18.2549 52.2664C18.0242 52.4972 17.8945 52.8101 17.8945 53.1365C17.8945 53.4628 18.0242 53.7758 18.2549 54.0066C18.4857 54.2373 18.7987 54.3669 19.125 54.3669Z" fill="#ED412C"/>
<path d="M19.125 60.9082H37.838C38.1643 60.9082 38.4773 60.7786 38.708 60.5478C38.9388 60.317 39.0684 60.0041 39.0684 59.6777C39.0684 59.3514 38.9388 59.0384 38.708 58.8077C38.4773 58.5769 38.1643 58.4473 37.838 58.4473H19.125C18.7987 58.4473 18.4857 58.5769 18.2549 58.8077C18.0242 59.0384 17.8945 59.3514 17.8945 59.6777C17.8945 60.0041 18.0242 60.317 18.2549 60.5478C18.4857 60.7786 18.7987 60.9082 19.125 60.9082V60.9082Z" fill="#ED412C"/>
<path d="M45.1758 64.9885H19.125C18.7987 64.9885 18.4857 65.1182 18.2549 65.3489C18.0242 65.5797 17.8945 65.8927 17.8945 66.219C17.8945 66.5453 18.0242 66.8583 18.2549 67.0891C18.4857 67.3198 18.7987 67.4495 19.125 67.4495H45.1758C45.5021 67.4495 45.8151 67.3198 46.0459 67.0891C46.2766 66.8583 46.4062 66.5453 46.4062 66.219C46.4062 65.8927 46.2766 65.5797 46.0459 65.3489C45.8151 65.1182 45.5021 64.9885 45.1758 64.9885V64.9885Z" fill="#ED412C"/>
<path d="M37.838 71.5303H19.125C18.7987 71.5303 18.4857 71.6599 18.2549 71.8907C18.0242 72.1214 17.8945 72.4344 17.8945 72.7607C17.8945 73.0871 18.0242 73.4001 18.2549 73.6308C18.4857 73.8616 18.7987 73.9912 19.125 73.9912H37.838C38.1643 73.9912 38.4773 73.8616 38.708 73.6308C38.9388 73.4001 39.0684 73.0871 39.0684 72.7607C39.0684 72.4344 38.9388 72.1214 38.708 71.8907C38.4773 71.6599 38.1643 71.5303 37.838 71.5303V71.5303Z" fill="#ED412C"/>
<path d="M46.1084 14.2734H18.6865C18.3602 14.2734 18.0472 14.4031 17.8165 14.6338C17.5857 14.8646 17.4561 15.1776 17.4561 15.5039V42.9258C17.4561 43.2521 17.5857 43.5651 17.8165 43.7959C18.0472 44.0266 18.3602 44.1562 18.6865 44.1562H46.1084C46.4347 44.1562 46.7477 44.0266 46.9785 43.7959C47.2092 43.5651 47.3389 43.2521 47.3389 42.9258V15.5039C47.3389 15.1776 47.2092 14.8646 46.9785 14.6338C46.7477 14.4031 46.4347 14.2734 46.1084 14.2734ZM34.6826 16.7344V22.0852L33.166 20.8716C32.9479 20.697 32.6768 20.6019 32.3975 20.6019C32.1181 20.6019 31.847 20.697 31.6289 20.8716L30.1123 22.0852V16.7344H34.6826ZM44.8779 41.6953H19.917V16.7344H27.6514V24.6445C27.6513 24.8763 27.7168 25.1034 27.8401 25.2996C27.9635 25.4958 28.1397 25.6532 28.3486 25.7537C28.5575 25.8541 28.7905 25.8935 29.0208 25.8673C29.2511 25.8412 29.4693 25.7505 29.6504 25.6057L32.3975 23.4084L35.1446 25.6057C35.3256 25.7505 35.5438 25.8412 35.7741 25.8673C36.0044 25.8935 36.2374 25.8541 36.4463 25.7537C36.6552 25.6532 36.8315 25.4958 36.9548 25.2996C37.0782 25.1034 37.1436 24.8763 37.1436 24.6445V16.7344H44.8779V41.6953Z" fill="#ED412C"/>
<path d="M79.687 48.4003C79.687 48.074 79.5574 47.761 79.3266 47.5302C79.0959 47.2995 78.7829 47.1698 78.4566 47.1698H65.3644V17.4628C65.3635 17.4266 65.3579 17.3907 65.3475 17.3559C65.3265 17.0692 65.2047 16.7992 65.0037 16.5938L55.6261 7.21617C55.4166 7.01133 55.1402 6.889 54.8477 6.87164C54.8178 6.8624 54.7869 6.85696 54.7556 6.85547H11.543C11.2166 6.85547 10.9037 6.98511 10.6729 7.21586C10.4421 7.44662 10.3125 7.7596 10.3125 8.08594V81.9141C10.3125 82.2404 10.4421 82.5534 10.6729 82.7841C10.9037 83.0149 11.2166 83.1445 11.543 83.1445H64.1367C64.4631 83.1445 64.776 83.0149 65.0068 82.7841C65.2376 82.5534 65.3672 82.2404 65.3672 81.9141V78.3984C68.9313 77.4766 79.687 72.6764 79.687 48.4003ZM55.9868 11.0566L61.1632 16.233H55.9868V11.0566ZM12.7734 80.6836V9.31641H53.5259V17.4628C53.5259 17.7892 53.6555 18.1021 53.8863 18.3329C54.117 18.5636 54.43 18.6933 54.7563 18.6933H62.9034V47.1698H49.8106C49.4842 47.1698 49.1712 47.2995 48.9405 47.5302C48.7097 47.761 48.5801 48.074 48.5801 48.4003C48.5801 72.6764 59.3379 77.4773 62.9034 78.402V80.6836H12.7734ZM64.1353 76.152C62.7579 75.9473 51.4277 73.5293 51.0509 49.6308H77.217C76.8394 73.5567 65.4832 75.953 64.1353 76.152Z" fill="#ED412C"/>
<path d="M72.079 55.3942C71.838 55.1743 71.5194 55.0591 71.1935 55.074C70.8675 55.0889 70.5608 55.2327 70.3409 55.4737L62.6845 63.8599L59.1837 61.1057C58.9272 60.9039 58.601 60.8123 58.277 60.851C57.9529 60.8897 57.6575 61.0556 57.4558 61.3121C57.254 61.5686 57.1624 61.8947 57.2011 62.2188C57.2398 62.5428 57.4056 62.8382 57.6621 63.04L62.0616 66.5008C62.3061 66.6926 62.6142 66.7847 62.9238 66.7586C63.2335 66.7325 63.5218 66.5902 63.7308 66.3602L72.157 57.1295C72.3764 56.8889 72.4914 56.5711 72.4768 56.2458C72.4622 55.9204 72.3191 55.6142 72.079 55.3942V55.3942Z" fill="#ED412C"/>
</svg>
