<svg width="90" height="90" viewBox="0 0 90 90" fill="none" xmlns="http://www.w3.org/2000/svg">
<path d="M33.457 29.3203V49.9486C33.457 50.2749 33.5867 50.5879 33.8174 50.8187C34.0482 51.0494 34.3612 51.1791 34.6875 51.1791H55.313C55.6393 51.1791 55.9523 51.0494 56.183 50.8187C56.4138 50.5879 56.5434 50.2749 56.5434 49.9486V29.3203C56.5434 28.994 56.4138 28.681 56.183 28.4502C55.9523 28.2195 55.6393 28.0898 55.313 28.0898H34.6875C34.3612 28.0898 34.0482 28.2195 33.8174 28.4502C33.5867 28.681 33.457 28.994 33.457 29.3203ZM46.4135 30.5508V33.6354L45.7688 33.1193C45.5505 32.9448 45.2793 32.8497 44.9999 32.8497C44.7204 32.8497 44.4493 32.9448 44.231 33.1193L43.5862 33.6354V30.5543L46.4135 30.5508ZM35.918 30.5508H41.1253V36.1955C41.1253 36.4272 41.1907 36.6543 41.3141 36.8506C41.4374 37.0468 41.6137 37.2042 41.8226 37.3046C42.0315 37.4051 42.2645 37.4445 42.4948 37.4183C42.7251 37.3921 42.9433 37.3014 43.1243 37.1566L45.0002 35.659L46.8755 37.1595C47.0565 37.3042 47.2747 37.3949 47.505 37.4211C47.7353 37.4473 47.9683 37.4079 48.1772 37.3074C48.3861 37.207 48.5624 37.0496 48.6857 36.8534C48.8091 36.6571 48.8745 36.4301 48.8745 36.1983V30.5543H54.0818V48.7181H35.918V30.5508Z" fill="#ED412C"/>
<path d="M81.9141 13.6208H8.08594C7.7596 13.6208 7.44662 13.7505 7.21586 13.9812C6.98511 14.212 6.85547 14.525 6.85547 14.8513V66.8868C6.85547 67.2131 6.98511 67.5261 7.21586 67.7569C7.44662 67.9876 7.7596 68.1173 8.08594 68.1173H38.9355V73.918H33.3984C33.0721 73.918 32.7591 74.0477 32.5284 74.2784C32.2976 74.5092 32.168 74.8222 32.168 75.1485C32.168 75.4748 32.2976 75.7878 32.5284 76.0186C32.7591 76.2493 33.0721 76.379 33.3984 76.379H56.6016C56.9279 76.379 57.2409 76.2493 57.4716 76.0186C57.7024 75.7878 57.832 75.4748 57.832 75.1485C57.832 74.8222 57.7024 74.5092 57.4716 74.2784C57.2409 74.0477 56.9279 73.918 56.6016 73.918H51.0645V68.1173H81.9141C82.2404 68.1173 82.5534 67.9876 82.7841 67.7569C83.0149 67.5261 83.1445 67.2131 83.1445 66.8868V14.8513C83.1445 14.525 83.0149 14.212 82.7841 13.9812C82.5534 13.7505 82.2404 13.6208 81.9141 13.6208ZM48.6035 73.918H41.3965V68.1173H48.6035V73.918ZM80.6836 65.6563H9.31641V16.0818H80.6836V65.6563Z" fill="#ED412C"/>
<path d="M13.7588 60.5173H76.2406C76.5669 60.5173 76.8799 60.3877 77.1107 60.1569C77.3414 59.9262 77.4711 59.6132 77.4711 59.2869V19.9822C77.4711 19.6558 77.3414 19.3429 77.1107 19.1121C76.8799 18.8813 76.5669 18.7517 76.2406 18.7517H13.7588C13.4324 18.7517 13.1195 18.8813 12.8887 19.1121C12.658 19.3429 12.5283 19.6558 12.5283 19.9822V59.2869C12.5283 59.6132 12.658 59.9262 12.8887 60.1569C13.1195 60.3877 13.4324 60.5173 13.7588 60.5173ZM14.9893 21.2126H75.0101V58.0564H14.9893V21.2126Z" fill="#ED412C"/>
<path d="M60.098 48.7188C59.7716 48.7188 59.4587 48.8484 59.2279 49.0791C58.9971 49.3099 58.8675 49.6229 58.8675 49.9492V53.5042H55.3125C54.9862 53.5042 54.6732 53.6339 54.4424 53.8646C54.2117 54.0954 54.082 54.4083 54.082 54.7347C54.082 55.061 54.2117 55.374 54.4424 55.6048C54.6732 55.8355 54.9862 55.9652 55.3125 55.9652H60.098C60.4243 55.9652 60.7373 55.8355 60.968 55.6048C61.1988 55.374 61.3284 55.061 61.3284 54.7347V49.9492C61.3284 49.6229 61.1988 49.3099 60.968 49.0791C60.7373 48.8484 60.4243 48.7188 60.098 48.7188Z" fill="#ED412C"/>
<path d="M60.098 23.3079H55.3125C54.9862 23.3079 54.6732 23.4375 54.4424 23.6683C54.2117 23.899 54.082 24.212 54.082 24.5383C54.082 24.8647 54.2117 25.1776 54.4424 25.4084C54.6732 25.6392 54.9862 25.7688 55.3125 25.7688H58.8675V29.3203C58.8675 29.6466 58.9971 29.9596 59.2279 30.1904C59.4587 30.4211 59.7716 30.5508 60.098 30.5508C60.4243 30.5508 60.7373 30.4211 60.968 30.1904C61.1988 29.9596 61.3284 29.6466 61.3284 29.3203V24.539C61.3285 24.3774 61.2968 24.2173 61.235 24.0679C61.1732 23.9186 61.0826 23.7828 60.9683 23.6685C60.854 23.5542 60.7183 23.4635 60.569 23.4016C60.4197 23.3397 60.2596 23.3079 60.098 23.3079Z" fill="#ED412C"/>
<path d="M29.9014 30.5536C30.2277 30.5536 30.5407 30.4239 30.7714 30.1932C31.0022 29.9624 31.1318 29.6494 31.1318 29.3231V25.7688H34.6868C35.0132 25.7688 35.3262 25.6392 35.5569 25.4084C35.7877 25.1776 35.9173 24.8647 35.9173 24.5383C35.9173 24.212 35.7877 23.899 35.5569 23.6683C35.3262 23.4375 35.0132 23.3079 34.6868 23.3079H29.9014C29.575 23.3079 29.2621 23.4375 29.0313 23.6683C28.8005 23.899 28.6709 24.212 28.6709 24.5383V29.3203C28.6705 29.4821 28.7021 29.6424 28.7638 29.792C28.8254 29.9416 28.916 30.0776 29.0303 30.1922C29.1446 30.3067 29.2804 30.3976 29.4298 30.4596C29.5793 30.5216 29.7395 30.5536 29.9014 30.5536Z" fill="#ED412C"/>
<path d="M34.6868 53.5035H31.1318V49.9492C31.1318 49.6229 31.0022 49.3099 30.7714 49.0791C30.5407 48.8484 30.2277 48.7188 29.9014 48.7188C29.575 48.7188 29.2621 48.8484 29.0313 49.0791C28.8005 49.3099 28.6709 49.6229 28.6709 49.9492V54.7347C28.6709 55.061 28.8005 55.374 29.0313 55.6048C29.2621 55.8355 29.575 55.9652 29.9014 55.9652H34.6868C35.0132 55.9652 35.3262 55.8355 35.5569 55.6048C35.7877 55.374 35.9173 55.061 35.9173 54.7347C35.9173 54.4083 35.7877 54.0954 35.5569 53.8646C35.3262 53.6339 35.0132 53.5042 34.6868 53.5042V53.5035Z" fill="#ED412C"/>
</svg>
