<svg width="90" height="90" viewBox="0 0 90 90" fill="none" xmlns="http://www.w3.org/2000/svg">
<path d="M81.9141 74.5446H75.0586V36.9597H80.1562C80.4144 36.9598 80.6661 36.8787 80.8757 36.7279C81.0852 36.577 81.242 36.364 81.3238 36.1192C81.4056 35.8743 81.4083 35.6098 81.3315 35.3633C81.2547 35.1168 81.1023 34.9007 80.8959 34.7456L46.4062 8.8256C46.196 8.66776 45.9408 8.58131 45.6779 8.57891C45.415 8.57651 45.1582 8.65827 44.9452 8.81224L30.9375 18.9492V13.1484C30.9375 12.8221 30.8079 12.5091 30.5771 12.2783C30.3463 12.0476 30.0334 11.9179 29.707 11.9179H21.0938C20.7674 11.9179 20.4544 12.0476 20.2237 12.2783C19.9929 12.5091 19.8633 12.8221 19.8633 13.1484V26.9613L9.12234 34.7344C8.91248 34.8871 8.75628 35.1022 8.67609 35.3491C8.59589 35.5959 8.5958 35.8618 8.67584 36.1087C8.75588 36.3556 8.91194 36.5709 9.12171 36.7237C9.33147 36.8766 9.5842 36.9592 9.84375 36.9597H14.9414V74.5446H8.08594C7.7596 74.5446 7.44662 74.6742 7.21586 74.905C6.98511 75.1357 6.85547 75.4487 6.85547 75.775C6.85547 76.1014 6.98511 76.4144 7.21586 76.6451C7.44662 76.8759 7.7596 77.0055 8.08594 77.0055H39.375V80.1907C39.375 80.517 39.5046 80.83 39.7354 81.0607C39.9662 81.2915 40.2791 81.4211 40.6055 81.4211H68.0273C68.3537 81.4211 68.6667 81.2915 68.8974 81.0607C69.1282 80.83 69.2578 80.517 69.2578 80.1907V77.0055H81.9141C82.2404 77.0055 82.5534 76.8759 82.7841 76.6451C83.0149 76.4144 83.1445 76.1014 83.1445 75.775C83.1445 75.4487 83.0149 75.1357 82.7841 74.905C82.5534 74.6742 82.2404 74.5446 81.9141 74.5446ZM22.3242 14.3796H28.4766V20.7295L22.3242 25.181V14.3796ZM24.082 74.5446V44.0226H43.7695V51.539H40.6055C40.2793 51.539 39.9664 51.6686 39.7356 51.8992C39.5049 52.1298 39.3752 52.4426 39.375 52.7688V74.5446H24.082ZM66.7969 78.9609H41.8359V54H49.5703V61.9101C49.5703 62.1419 49.6357 62.369 49.7591 62.5652C49.8824 62.7614 50.0587 62.9188 50.2676 63.0193C50.4765 63.1197 50.7095 63.1591 50.9398 63.1329C51.1701 63.1068 51.3883 63.0161 51.5693 62.8713L54.3164 60.6726L57.0635 62.8699C57.2445 63.0146 57.4626 63.1053 57.6929 63.1315C57.9231 63.1577 58.1561 63.1184 58.3649 63.018C58.5738 62.9177 58.7501 62.7604 58.8735 62.5643C58.9969 62.3681 59.0624 62.1411 59.0625 61.9094V54H66.7969V78.9609ZM52.0312 54H56.6016V59.35L55.0849 58.1365C54.8668 57.9619 54.5958 57.8667 54.3164 57.8667C54.037 57.8667 53.766 57.9619 53.5479 58.1365L52.0312 59.3493V54ZM68.0273 51.539H46.2305V42.7922C46.2305 42.4658 46.1008 42.1528 45.8701 41.9221C45.6393 41.6913 45.3263 41.5617 45 41.5617H22.8516C22.5252 41.5617 22.2122 41.6913 21.9815 41.9221C21.7507 42.1528 21.6211 42.4658 21.6211 42.7922V74.5446H17.4023V35.7321C17.4027 35.5703 17.3712 35.41 17.3095 35.2603C17.2478 35.1107 17.1572 34.9747 17.0429 34.8602C16.9286 34.7456 16.7929 34.6547 16.6434 34.5927C16.4939 34.5307 16.3337 34.4988 16.1719 34.4988H13.6406L45.6525 11.3379L76.4684 34.4988H73.8281C73.5018 34.4988 73.1888 34.6284 72.9581 34.8592C72.7273 35.09 72.5977 35.4029 72.5977 35.7293V74.5418H69.2578V52.7688C69.2576 52.4426 69.1279 52.1298 68.8972 51.8992C68.6664 51.6686 68.3536 51.539 68.0273 51.539Z" fill="#ED412C"/>
<path d="M28.3887 58.0527H26.8066C26.4803 58.0527 26.1673 58.1824 25.9366 58.4131C25.7058 58.6439 25.5762 58.9569 25.5762 59.2832C25.5762 59.6095 25.7058 59.9225 25.9366 60.1533C26.1673 60.384 26.4803 60.5137 26.8066 60.5137H28.3887C28.715 60.5137 29.028 60.384 29.2587 60.1533C29.4895 59.9225 29.6191 59.6095 29.6191 59.2832C29.6191 58.9569 29.4895 58.6439 29.2587 58.4131C29.028 58.1824 28.715 58.0527 28.3887 58.0527Z" fill="#ED412C"/>
<path d="M45 21.1577C44.1656 21.1577 43.35 21.4051 42.6562 21.8687C41.9624 22.3323 41.4217 22.9911 41.1024 23.762C40.7831 24.5329 40.6995 25.3811 40.8623 26.1995C41.0251 27.0179 41.4269 27.7696 42.0169 28.3596C42.6069 28.9496 43.3586 29.3514 44.177 29.5142C44.9953 29.6769 45.8436 29.5934 46.6144 29.2741C47.3853 28.9548 48.0442 28.414 48.5078 27.7203C48.9713 27.0265 49.2188 26.2109 49.2188 25.3765C49.2175 24.258 48.7726 23.1857 47.9817 22.3948C47.1908 21.6039 46.1185 21.159 45 21.1577ZM45 27.1343C44.6523 27.1343 44.3125 27.0312 44.0234 26.838C43.7343 26.6449 43.509 26.3703 43.376 26.0492C43.243 25.728 43.2081 25.3745 43.276 25.0335C43.3438 24.6926 43.5112 24.3793 43.757 24.1335C44.0029 23.8877 44.3161 23.7203 44.6571 23.6524C44.9981 23.5846 45.3515 23.6194 45.6727 23.7525C45.9939 23.8855 46.2684 24.1108 46.4616 24.3999C46.6547 24.6889 46.7578 25.0288 46.7578 25.3765C46.7578 25.8427 46.5726 26.2898 46.243 26.6194C45.9133 26.9491 45.4662 27.1343 45 27.1343Z" fill="#ED412C"/>
</svg>
