<svg width="70" height="70" viewBox="0 0 70 70" fill="none" xmlns="http://www.w3.org/2000/svg">
<rect x="0.5" y="0.5" width="69" height="69" rx="34.5" fill="white" stroke="#E6E6E6"/>
<path d="M52.4422 24.0872L46.363 18.0876V13.7204C46.363 13.532 46.2871 13.3512 46.152 13.2179C46.017 13.0846 45.8338 13.0098 45.6428 13.0098H18.7597C18.5687 13.0098 18.3855 13.0846 18.2505 13.2179C18.1154 13.3512 18.0396 13.532 18.0396 13.7204V51.4873C18.0396 51.6758 18.1154 51.8565 18.2505 51.9898C18.3855 52.1231 18.5687 52.198 18.7597 52.198H22.8184V56.2792C22.8184 56.4677 22.8943 56.6485 23.0293 56.7817C23.1644 56.915 23.3476 56.9899 23.5386 56.9899H51.9327C52.1237 56.9899 52.3069 56.915 52.442 56.7817C52.577 56.6485 52.6529 56.4677 52.6529 56.2792V24.5896C52.6529 24.4012 52.5771 24.2205 52.4422 24.0872V24.0872ZM46.363 20.0961L50.1945 23.8773H46.363V20.0961ZM19.4798 50.7766V14.4311H44.9227V17.6705H23.539C23.348 17.6705 23.1648 17.7454 23.0298 17.8787C22.8947 18.0119 22.8188 18.1927 22.8188 18.3812V50.7766H19.4798ZM24.2587 55.5686V19.0927H44.9227V24.5896C44.9227 24.7781 44.9985 24.9588 45.1336 25.0921C45.2686 25.2254 45.4518 25.3002 45.6428 25.3002H51.2126V55.5673L24.2587 55.5686Z" fill="#ED412C"/>
<path d="M31.3202 40.4474H44.1528C44.3438 40.4474 44.5269 40.3725 44.662 40.2392C44.797 40.106 44.8729 39.9252 44.8729 39.7367V27.0735C44.8729 26.885 44.797 26.7042 44.662 26.5709C44.5269 26.4377 44.3438 26.3628 44.1528 26.3628H31.3202C31.1292 26.3628 30.9461 26.4377 30.811 26.5709C30.676 26.7042 30.6001 26.885 30.6001 27.0735V39.7367C30.6001 39.9252 30.676 40.106 30.811 40.2392C30.9461 40.3725 31.1292 40.4474 31.3202 40.4474V40.4474ZM38.6612 27.7841V29.8146L38.1859 29.441C38.0582 29.3401 37.8995 29.2851 37.7359 29.2851C37.5723 29.2851 37.4136 29.3401 37.2859 29.441L36.8114 29.8158V27.7853L38.6612 27.7841ZM32.0404 27.7841H35.3711V31.2944C35.3714 31.428 35.4098 31.5589 35.482 31.6719C35.5541 31.785 35.6571 31.8757 35.7791 31.9336C35.9012 31.9915 36.0372 32.0143 36.1718 31.9994C36.3063 31.9844 36.4339 31.9324 36.5398 31.8491L37.7332 30.9058L38.9286 31.8491C39.0346 31.9327 39.1622 31.9851 39.297 32.0002C39.4317 32.0154 39.5681 31.9927 39.6903 31.9347C39.8125 31.8767 39.9157 31.7859 39.9879 31.6726C40.0602 31.5593 40.0985 31.4282 40.0986 31.2944V27.7841H43.4293V39.0261H32.0404V27.7841Z" fill="#ED412C"/>
<path d="M46.8406 43.2231H28.6313C28.4403 43.2231 28.2571 43.298 28.1221 43.4313C27.987 43.5646 27.9111 43.7453 27.9111 43.9338C27.9111 44.1223 27.987 44.3031 28.1221 44.4363C28.2571 44.5696 28.4403 44.6445 28.6313 44.6445H46.8406C47.0316 44.6445 47.2148 44.5696 47.3498 44.4363C47.4849 44.3031 47.5607 44.1223 47.5607 43.9338C47.5607 43.7453 47.4849 43.5646 47.3498 43.4313C47.2148 43.298 47.0316 43.2231 46.8406 43.2231V43.2231Z" fill="#ED412C"/>
<path d="M46.8406 47.0146H28.6313C28.4403 47.0146 28.2571 47.0895 28.1221 47.2228C27.987 47.3561 27.9111 47.5368 27.9111 47.7253C27.9111 47.9138 27.987 48.0946 28.1221 48.2278C28.2571 48.3611 28.4403 48.436 28.6313 48.436H46.8406C47.0316 48.436 47.2148 48.3611 47.3498 48.2278C47.4849 48.0946 47.5607 47.9138 47.5607 47.7253C47.5607 47.5368 47.4849 47.3561 47.3498 47.2228C47.2148 47.0895 47.0316 47.0146 46.8406 47.0146V47.0146Z" fill="#ED412C"/>
<path d="M46.8406 50.8062H28.6313C28.4403 50.8062 28.2571 50.881 28.1221 51.0143C27.987 51.1476 27.9111 51.3283 27.9111 51.5168C27.9111 51.7053 27.987 51.8861 28.1221 52.0193C28.2571 52.1526 28.4403 52.2275 28.6313 52.2275H46.8406C47.0316 52.2275 47.2148 52.1526 47.3498 52.0193C47.4849 51.8861 47.5607 51.7053 47.5607 51.5168C47.5607 51.3283 47.4849 51.1476 47.3498 51.0143C47.2148 50.881 47.0316 50.8062 46.8406 50.8062V50.8062Z" fill="#ED412C"/>
</svg>
