<svg width="174" height="175" viewBox="0 0 174 175" fill="none" xmlns="http://www.w3.org/2000/svg">
<path d="M115.717 91.175H138.486C138.923 91.1751 139.351 91.0546 139.723 90.8266C140.096 90.5986 140.399 90.2718 140.6 89.8822C140.8 89.4925 140.89 89.0548 140.86 88.6171C140.83 88.1793 140.681 87.7583 140.429 87.4002L129.611 72.0193C129.391 71.7069 129.1 71.4521 128.762 71.2763C128.424 71.1005 128.049 71.0088 127.668 71.009H115.717C115.086 71.009 114.481 71.261 114.035 71.7097C113.589 72.1584 113.338 72.767 113.338 73.4015V88.7824C113.338 89.417 113.589 90.0255 114.035 90.4742C114.481 90.9229 115.086 91.175 115.717 91.175ZM118.096 75.7941H126.438L133.889 86.3898H118.096V75.7941Z" fill="#808080"/>
<path d="M158.367 123.304H138.469C139.994 121.496 141.017 119.314 141.433 116.981H148.172C148.803 116.981 149.408 116.729 149.854 116.28C150.3 115.831 150.551 115.223 150.551 114.588V90.3191C150.551 89.837 150.406 89.3661 150.135 88.9683L133.709 64.8156C133.491 64.4945 133.198 64.2318 132.856 64.0502C132.514 63.8687 132.133 63.7738 131.747 63.7738H110.676V49.3049C110.676 48.6703 110.426 48.0618 109.979 47.6131C109.533 47.1644 108.928 46.9123 108.297 46.9123H25.8281C25.1972 46.9123 24.5921 47.1644 24.146 47.6131C23.6999 48.0618 23.4492 48.6703 23.4492 49.3049V114.588C23.4492 115.223 23.6999 115.831 24.146 116.28C24.5921 116.729 25.1972 116.981 25.8281 116.981H35.254C35.6706 119.314 36.6935 121.496 38.2188 123.304H15.6328C15.0019 123.304 14.3968 123.556 13.9507 124.005C13.5045 124.453 13.2539 125.062 13.2539 125.696C13.2539 126.331 13.5045 126.94 13.9507 127.388C14.3968 127.837 15.0019 128.089 15.6328 128.089H158.367C158.998 128.089 159.603 127.837 160.049 127.388C160.495 126.94 160.746 126.331 160.746 125.696C160.746 125.062 160.495 124.453 160.049 124.005C159.603 123.556 158.998 123.304 158.367 123.304ZM61.6545 116.981H115.034C115.449 119.314 116.47 121.495 117.994 123.304H58.6897C60.215 121.496 61.2379 119.314 61.6545 116.981ZM119.564 114.588C119.564 112.864 120.072 111.179 121.024 109.746C121.977 108.313 123.33 107.195 124.914 106.536C126.497 105.876 128.239 105.703 129.921 106.04C131.602 106.376 133.146 107.206 134.358 108.425C135.57 109.644 136.395 111.197 136.729 112.888C137.064 114.578 136.892 116.331 136.236 117.923C135.58 119.516 134.47 120.877 133.044 121.835C131.619 122.793 129.944 123.304 128.23 123.304C125.933 123.3 123.731 122.381 122.107 120.747C120.484 119.113 119.57 116.898 119.568 114.588H119.564ZM130.488 68.559L145.793 91.0547V112.196H141.433C140.879 109.08 139.253 106.261 136.839 104.23C134.426 102.199 131.38 101.086 128.233 101.086C125.087 101.086 122.04 102.199 119.627 104.23C117.214 106.261 115.588 109.08 115.033 112.196H110.676V68.559H130.488ZM28.207 51.6974H105.918V112.196H61.6545C61.0997 109.08 59.4735 106.261 57.0604 104.23C54.6472 102.199 51.6008 101.086 48.4542 101.086C45.3076 101.086 42.2612 102.199 39.8481 104.23C37.4349 106.261 35.8087 109.08 35.254 112.196H28.207V51.6974ZM39.7889 114.588C39.7878 112.277 40.6998 110.059 42.3242 108.424C43.9487 106.789 46.1525 105.869 48.4508 105.868C50.7492 105.867 52.9539 106.784 54.5798 108.418C56.2058 110.052 57.1199 112.268 57.1209 114.58V114.598C57.1199 116.909 56.2058 119.126 54.5798 120.759C52.9539 122.393 50.7492 123.31 48.4508 123.309C46.1525 123.308 43.9487 122.389 42.3242 120.754C40.6998 119.118 39.7878 116.901 39.7889 114.589V114.588Z" fill="#808080"/>
<path d="M63.0246 82.5283C62.8637 81.8814 62.1052 81.7622 61.7196 82.2823C61.4226 82.6815 61.4643 82.5692 61.1978 82.2568C60.7901 81.786 60.0674 81.8626 59.8912 82.5036C59.721 83.1216 60.19 83.6579 60.6411 84.0069C60.8439 84.1636 61.0576 84.3058 61.2804 84.4325C61.3247 84.4682 61.3793 84.4887 61.4362 84.491C61.4931 84.4933 61.5491 84.4772 61.5962 84.4452C62.0167 84.235 62.4474 83.9396 62.7428 83.5693C62.9735 83.2791 63.1148 82.8901 63.0246 82.5283Z" fill="#ED412C"/>
<path d="M37.5224 78.3454H35.0836V70.4222H34.0996V79.2596H37.5224V78.3454Z" fill="#ED412C"/>
<path d="M44.356 70.269C41.8355 70.269 39.75 72.3205 39.75 74.852C39.75 77.3835 41.8355 79.4111 44.356 79.4111C46.8764 79.4111 48.9619 77.3954 48.9619 74.852C48.9619 72.3085 46.8756 70.269 44.356 70.269ZM44.356 78.4978C42.3513 78.4978 40.734 76.8336 40.734 74.8375C40.734 74.3619 40.8277 73.8909 41.0097 73.4515C41.1917 73.012 41.4585 72.6127 41.7949 72.2764C42.1312 71.9401 42.5305 71.6733 42.9699 71.4913C43.4093 71.3093 43.8803 71.2156 44.356 71.2156C44.8316 71.2156 45.3026 71.3093 45.742 71.4913C46.1815 71.6733 46.5807 71.9401 46.9171 72.2764C47.2534 72.6127 47.5202 73.012 47.7022 73.4515C47.8842 73.8909 47.9779 74.3619 47.9779 74.8375C47.9745 76.8336 46.3572 78.4978 44.356 78.4978Z" fill="#ED412C"/>
<path d="M54.7658 77.1614L52.2453 70.4222H51.1787L54.7658 79.7865L58.352 70.4222H57.2854L54.7658 77.1614Z" fill="#ED412C"/>
<path d="M61.0146 79.2596H65.5976V78.3454H61.9995V74.8758H65.4921V73.9616H61.9995V71.3365H65.5976V70.4222H61.0146V79.2596Z" fill="#ED412C"/>
<path d="M71.9633 74.1957L71.3768 73.9403C70.781 73.6713 69.9936 73.3198 69.9936 72.5579C69.9936 71.7492 70.6746 71.1866 71.4594 71.1866C72.2093 71.1866 72.6307 71.5381 72.9831 72.1476L73.7679 71.6411C73.5518 71.2229 73.2236 70.873 72.8199 70.6306C72.4163 70.3883 71.9532 70.2631 71.4824 70.269C70.1698 70.269 69.0138 71.1483 69.0138 72.5196C69.0138 73.7854 69.9042 74.3131 70.9359 74.7822L71.4696 75.0162C72.2902 75.3916 73.0989 75.7432 73.0989 76.7749C73.0989 77.7708 72.2315 78.4977 71.2824 78.4977C70.3332 78.4977 69.642 77.7589 69.5118 76.8566L68.5508 77.1264C68.8317 78.4977 69.8864 79.412 71.3053 79.412C72.8375 79.412 74.0829 78.2279 74.0829 76.6812C74.0846 75.2776 73.1116 74.7004 71.9633 74.1957Z" fill="#ED412C"/>
<path d="M77.2256 79.2596H81.8086V78.3454H78.2105V74.8758H81.703V73.9616H78.2105V71.3365H81.8086V70.4222H77.2256V79.2596Z" fill="#ED412C"/>
<path d="M84.3643 79.2596H85.4428L86.5093 76.751H90.2811L91.3239 79.2596H92.4143L88.4433 70L84.3643 79.2596ZM86.9077 75.8368L88.4203 72.2983L89.8972 75.8377L86.9077 75.8368Z" fill="#ED412C"/>
<path d="M93.3691 71.3365H95.5023V79.2596H96.4863V71.3365H98.6433V70.4222H93.3691V71.3365Z" fill="#ED412C"/>
<path fill-rule="evenodd" clip-rule="evenodd" d="M41.5006 81.6881V83.899L39.4 81.6838L39.3994 81.6832L39.2296 81.5007V84.59H39.599V82.4161L41.87 84.8302V81.6881H41.5006Z" fill="#A1A1A1"/>
<path fill-rule="evenodd" clip-rule="evenodd" d="M44.6076 84.2307V81.6881H44.2381V84.59H45.2962V84.2307H44.6076Z" fill="#A1A1A1"/>
<path fill-rule="evenodd" clip-rule="evenodd" d="M47.7656 81.6881H47.3962V84.59H47.7656V81.6881Z" fill="#A1A1A1"/>
<path fill-rule="evenodd" clip-rule="evenodd" d="M50.5031 82.4162L52.6022 84.648L52.6024 84.6483L52.7734 84.8315V81.6881H52.4039V83.8989L50.3036 81.6832L50.3031 81.6826L50.1329 81.5064V84.59H50.5031V82.4162Z" fill="#A1A1A1"/>
<path fill-rule="evenodd" clip-rule="evenodd" d="M55.1423 81.6881V84.59H56.6302V84.2307H55.5117V83.1914H56.6022V82.8322H55.5117V82.0465H56.6302V81.6881H55.1423Z" fill="#A1A1A1"/>
<path fill-rule="evenodd" clip-rule="evenodd" d="M34.9435 81.7549C35.1275 81.6826 35.324 81.6478 35.5216 81.6524C35.7192 81.6478 35.9158 81.6826 36.0998 81.7549C36.2844 81.8274 36.4527 81.9361 36.5947 82.0746C36.7367 82.2132 36.8495 82.3787 36.9265 82.5615C37.0036 82.7443 37.0433 82.9407 37.0433 83.1391C37.0433 83.3374 37.0036 83.5338 36.9265 83.7166C36.8495 83.8994 36.7367 84.0649 36.5947 84.2035C36.4527 84.342 36.2844 84.4507 36.0998 84.5232C35.9158 84.5955 35.7192 84.6303 35.5216 84.6257C35.324 84.6303 35.1275 84.5955 34.9435 84.5232C34.7588 84.4507 34.5906 84.342 34.4486 84.2035C34.3066 84.0649 34.1938 83.8994 34.1167 83.7166C34.0397 83.5338 34 83.3374 34 83.1391C34 82.9407 34.0397 82.7443 34.1167 82.5615C34.1938 82.3787 34.3066 82.2132 34.4486 82.0746C34.5906 81.9361 34.7588 81.8274 34.9435 81.7549ZM35.5239 84.2674L35.5216 84.2673L35.5194 84.2674C35.3687 84.2714 35.2187 84.2451 35.0783 84.1902C34.938 84.1353 34.81 84.0528 34.702 83.9477C34.594 83.8425 34.5082 83.7168 34.4496 83.5779C34.391 83.439 34.3608 83.2898 34.3608 83.1391C34.3608 82.9883 34.391 82.8391 34.4496 82.7002C34.5082 82.5613 34.594 82.4356 34.702 82.3304C34.81 82.2253 34.938 82.1428 35.0783 82.0879C35.2187 82.033 35.3687 82.0067 35.5194 82.0107L35.5216 82.0108L35.5239 82.0107C35.6746 82.0067 35.8245 82.033 35.9649 82.0879C36.1053 82.1428 36.2333 82.2253 36.3413 82.3304C36.4493 82.4356 36.5351 82.5613 36.5937 82.7002C36.6523 82.8391 36.6825 82.9883 36.6825 83.1391C36.6825 83.2898 36.6523 83.439 36.5937 83.5779C36.5351 83.7168 36.4493 83.8425 36.3413 83.9477C36.2333 84.0528 36.1053 84.1353 35.9649 84.1902C35.8245 84.2451 35.6746 84.2714 35.5239 84.2674ZM36.7676 83.139C36.7676 83.139 36.7676 83.139 36.7676 83.139Z" fill="#A1A1A1"/>
<path fill-rule="evenodd" clip-rule="evenodd" d="M67.0014 81.4351L65.7715 84.4555L65.7227 84.5899H66.1054L66.4714 83.7047H67.526L67.8573 84.5173V84.5942H68.2754L67.0014 81.4351ZM66.6168 83.3429L67.0007 82.3992L67.3813 83.3429H66.6168Z" fill="#A1A1A1"/>
<path fill-rule="evenodd" clip-rule="evenodd" d="M71.9483 83.7721C71.9643 83.6636 71.9645 83.5456 71.9645 83.4221L71.9636 81.689H72.333V83.4859C72.3331 83.758 72.3331 84.0241 72.1286 84.2774L72.1265 84.28L72.1241 84.2825C72.0202 84.3922 71.895 84.4795 71.7562 84.5392C71.6173 84.5989 71.4678 84.6297 71.3167 84.6297C71.1656 84.6297 71.016 84.5989 70.8772 84.5392C70.7384 84.4795 70.6132 84.3922 70.5092 84.2825L70.5069 84.28L70.5048 84.2774C70.2994 84.0233 70.2995 83.7571 70.2995 83.4849L70.2995 81.6881H70.6689V83.4221C70.6689 83.5473 70.6691 83.6666 70.6851 83.7753C70.7011 83.8836 70.7318 83.9733 70.7871 84.042C70.8436 84.1122 70.9306 84.1687 71.0296 84.2077C71.1282 84.2466 71.2323 84.2656 71.3167 84.2656C71.4017 84.2656 71.506 84.2477 71.6042 84.2095C71.7028 84.1712 71.7892 84.115 71.8455 84.043C71.9015 83.9712 71.9323 83.88 71.9483 83.7721Z" fill="#A1A1A1"/>
<path d="M76.9921 82.0406C76.7309 81.7956 76.3875 81.6571 76.0293 81.6524L76.0288 81.6524C75.6307 81.6495 75.2476 81.8048 74.9639 82.0841C74.6802 82.3635 74.5189 82.744 74.5156 83.1422V83.1429C74.5156 83.9489 75.2072 84.6257 76.0239 84.6257L76.0246 84.6257C76.3785 84.6231 76.72 84.4952 76.9885 84.2647L76.9905 84.263L77.0233 84.2311V83.6819L76.8502 83.892C76.7432 84.0069 76.6144 84.0996 76.4714 84.1645C76.3286 84.2295 76.1743 84.2655 76.0174 84.2707C75.7173 84.259 75.4323 84.136 75.2179 83.9257L75.2171 83.9249C75.1134 83.8258 75.0306 83.7071 74.9736 83.5755C74.9167 83.4442 74.8866 83.3029 74.885 83.1598C74.8874 82.8589 75.0072 82.5708 75.2188 82.3568C75.4301 82.1431 75.7165 82.0202 76.017 82.0142C76.1755 82.018 76.3314 82.0551 76.4747 82.123C76.6182 82.1911 76.7458 82.2887 76.8491 82.4094L76.8496 82.41L77.0233 82.6208V82.0696L76.9921 82.0406Z" fill="#A1A1A1"/>
<path d="M79.0441 81.6881V82.0465H79.7429V84.5899H80.1124V82.0465H80.8121V81.6881H79.0441Z" fill="#A1A1A1"/>
<path d="M83.2815 81.6881H82.912V84.5899H83.2815V81.6881Z" fill="#A1A1A1"/>
<path fill-rule="evenodd" clip-rule="evenodd" d="M86.989 81.6524L86.9882 81.6524L86.9875 81.6524C86.6941 81.6561 86.4085 81.7465 86.1664 81.9122C85.9244 82.0779 85.7367 82.3115 85.6271 82.5836C85.5175 82.8557 85.4908 83.1541 85.5503 83.4414C85.6099 83.7286 85.7531 83.9918 85.9619 84.1978C86.1707 84.4039 86.4358 84.5436 86.7238 84.5993C87.0118 84.6551 87.3098 84.6244 87.5804 84.5112C87.851 84.398 88.0821 84.2072 88.2446 83.963C88.4071 83.7187 88.4937 83.4319 88.4935 83.1386V83.1378L88.4935 83.137C88.4862 82.7421 88.3247 82.3657 88.0436 82.0883C87.7625 81.8109 87.384 81.6544 86.989 81.6524ZM86.9882 84.2673C86.7653 84.2666 86.5476 84.1999 86.3626 84.0756C86.1774 83.9512 86.0332 83.7747 85.9482 83.5684C85.8633 83.3621 85.8414 83.1352 85.8853 82.9165C85.9292 82.6977 86.037 82.4969 86.1949 82.3394C86.3529 82.1818 86.554 82.0746 86.7729 82.0314C86.9918 81.9881 87.2186 82.0106 87.4246 82.0961C87.6307 82.1816 87.8068 82.3263 87.9307 82.5119C88.0544 82.6972 88.1205 82.9151 88.1207 83.1379C88.1162 83.4366 87.9954 83.7218 87.7838 83.9327C87.5723 84.1436 87.2868 84.2637 86.9882 84.2673Z" fill="#A1A1A1"/>
<path d="M91.0668 82.4161L93.1656 84.6469L93.1669 84.6483L93.337 84.8373V81.6881H92.9675V83.8989L90.8677 81.6838L90.8672 81.6832L90.6973 81.5007V84.5899H91.0668V82.4161Z" fill="#A1A1A1"/>
<path fill-rule="evenodd" clip-rule="evenodd" d="M97.315 83.377C97.2503 83.2678 97.1568 83.1785 97.0449 83.1188L96.5325 82.8464L96.5096 82.8354L96.5093 82.8353C96.3992 82.7831 96.2952 82.7332 96.2174 82.6669C96.1431 82.6037 96.0982 82.5303 96.0982 82.4287V82.4279L96.0982 82.4272C96.0973 82.3727 96.1072 82.3186 96.1275 82.268C96.1477 82.2175 96.1779 82.1714 96.2161 82.1326C96.2544 82.0938 96.3 82.0631 96.3503 82.0421C96.4006 82.0212 96.4546 82.0105 96.5091 82.0107L96.5099 82.0107L96.5108 82.0107C96.6049 82.0092 96.6975 82.0334 96.7788 82.0808C96.8601 82.1282 96.9268 82.1969 96.9717 82.2795L96.9736 82.2829L97.0365 82.3773L97.3036 82.1566L97.267 82.0835L97.2657 82.0813C97.1901 81.9506 97.0814 81.8422 96.9505 81.7669C96.8203 81.692 96.6728 81.6525 96.5226 81.6524C96.4182 81.6472 96.3138 81.6637 96.2161 81.7008C96.1177 81.7382 96.0281 81.7958 95.9532 81.8698C95.8782 81.9439 95.8196 82.0327 95.781 82.1307C95.7426 82.228 95.7249 82.3321 95.7288 82.4365C95.7273 82.5522 95.7571 82.6661 95.8149 82.7663C95.8731 82.8672 95.9576 82.9504 96.0594 83.007L96.0604 83.0075L96.5509 83.2639L96.6004 83.2882C96.7172 83.3451 96.8294 83.4001 96.9134 83.4714C96.994 83.5398 97.0419 83.6175 97.0423 83.7215C97.0385 83.8682 96.9769 84.0075 96.8709 84.1089C96.7646 84.2106 96.6224 84.2661 96.4754 84.2631L96.4745 84.2631H96.4736C96.1543 84.2631 95.9942 84.0422 95.9126 83.8367L95.9117 83.8344L95.8687 83.7423L95.5742 83.9471C95.6081 84.1089 95.736 84.3105 95.9156 84.4415C96.0754 84.5581 96.268 84.6211 96.4658 84.6214C96.9731 84.6214 97.4114 84.2234 97.4117 83.7375C97.413 83.6107 97.3796 83.4861 97.315 83.377Z" fill="#A1A1A1"/>
</svg>
