<svg width="174" height="175" viewBox="0 0 174 175" fill="none" xmlns="http://www.w3.org/2000/svg">
<path d="M115.717 91.175H138.486C138.923 91.1751 139.351 91.0546 139.723 90.8266C140.096 90.5986 140.399 90.2718 140.6 89.8822C140.8 89.4925 140.89 89.0548 140.86 88.6171C140.83 88.1793 140.681 87.7583 140.429 87.4002L129.611 72.0193C129.391 71.7069 129.1 71.4521 128.762 71.2763C128.424 71.1005 128.049 71.0088 127.668 71.009H115.717C115.086 71.009 114.481 71.261 114.035 71.7097C113.589 72.1584 113.338 72.767 113.338 73.4015V88.7824C113.338 89.417 113.589 90.0255 114.035 90.4742C114.481 90.9229 115.086 91.175 115.717 91.175ZM118.096 75.7941H126.438L133.889 86.3898H118.096V75.7941Z" fill="#808080"/>
<path d="M158.367 123.304H138.469C139.994 121.496 141.017 119.314 141.433 116.981H148.172C148.803 116.981 149.408 116.729 149.854 116.28C150.3 115.831 150.551 115.223 150.551 114.588V90.3191C150.551 89.837 150.406 89.3661 150.135 88.9683L133.709 64.8156C133.491 64.4945 133.198 64.2318 132.856 64.0502C132.514 63.8687 132.133 63.7738 131.747 63.7738H110.676V49.3049C110.676 48.6703 110.426 48.0618 109.979 47.6131C109.533 47.1644 108.928 46.9123 108.297 46.9123H25.8281C25.1972 46.9123 24.5921 47.1644 24.146 47.6131C23.6999 48.0618 23.4492 48.6703 23.4492 49.3049V114.588C23.4492 115.223 23.6999 115.831 24.146 116.28C24.5921 116.729 25.1972 116.981 25.8281 116.981H35.254C35.6706 119.314 36.6935 121.496 38.2188 123.304H15.6328C15.0019 123.304 14.3968 123.556 13.9507 124.005C13.5045 124.453 13.2539 125.062 13.2539 125.696C13.2539 126.331 13.5045 126.94 13.9507 127.388C14.3968 127.837 15.0019 128.089 15.6328 128.089H158.367C158.998 128.089 159.603 127.837 160.049 127.388C160.495 126.94 160.746 126.331 160.746 125.696C160.746 125.062 160.495 124.453 160.049 124.005C159.603 123.556 158.998 123.304 158.367 123.304V123.304ZM61.6545 116.981H115.034C115.449 119.314 116.47 121.495 117.994 123.304H58.6897C60.215 121.496 61.2379 119.314 61.6545 116.981V116.981ZM119.564 114.588C119.564 112.864 120.072 111.179 121.024 109.746C121.977 108.313 123.33 107.195 124.914 106.536C126.497 105.876 128.239 105.703 129.92 106.04C131.602 106.376 133.146 107.206 134.358 108.425C135.57 109.644 136.395 111.197 136.729 112.888C137.064 114.578 136.892 116.331 136.236 117.923C135.58 119.516 134.47 120.877 133.044 121.835C131.619 122.793 129.944 123.304 128.23 123.304C125.933 123.3 123.731 122.381 122.107 120.747C120.484 119.113 119.57 116.898 119.568 114.588H119.564ZM130.488 68.559L145.793 91.0547V112.196H141.433C140.879 109.08 139.253 106.261 136.839 104.23C134.426 102.199 131.38 101.086 128.233 101.086C125.087 101.086 122.04 102.199 119.627 104.23C117.214 106.261 115.588 109.08 115.033 112.196H110.676V68.559H130.488ZM28.207 51.6974H105.918V112.196H61.6545C61.0997 109.08 59.4735 106.261 57.0604 104.23C54.6472 102.199 51.6008 101.086 48.4542 101.086C45.3076 101.086 42.2612 102.199 39.8481 104.23C37.4349 106.261 35.8087 109.08 35.254 112.196H28.207V51.6974ZM39.7889 114.588C39.7878 112.276 40.6998 110.059 42.3242 108.424C43.9487 106.789 46.1525 105.869 48.4508 105.868C50.7492 105.867 52.9539 106.784 54.5798 108.418C56.2058 110.052 57.1199 112.268 57.1209 114.58V114.598C57.1199 116.909 56.2058 119.126 54.5798 120.759C52.9539 122.393 50.7492 123.31 48.4508 123.309C46.1525 123.308 43.9487 122.389 42.3242 120.754C40.6998 119.118 39.7878 116.901 39.7889 114.589V114.588Z" fill="#808080"/>
</svg>
