<svg width="22" height="22" viewBox="0 0 22 22" fill="none" xmlns="http://www.w3.org/2000/svg">
<path d="M17.0115 12.5443V2.54372C17.0115 2.46394 16.9798 2.38744 16.9234 2.33103C16.867 2.27462 16.7905 2.24294 16.7107 2.24294H1.97656C1.89679 2.24294 1.82029 2.27462 1.76388 2.33103C1.70747 2.38744 1.67578 2.46394 1.67578 2.54372V17.278C1.67578 17.3578 1.70747 17.4343 1.76388 17.4907C1.82029 17.5471 1.89679 17.5788 1.97656 17.5788H13.3968C13.6508 18.1652 14.0558 18.6736 14.5704 19.0524C15.085 19.4311 15.6909 19.6666 16.3262 19.7347C16.9616 19.8029 17.6036 19.7013 18.1869 19.4404C18.7701 19.1795 19.2737 18.7685 19.6463 18.2494C20.0189 17.7303 20.2472 17.1216 20.3078 16.4856C20.3684 15.8495 20.2592 15.2087 19.9914 14.6285C19.7235 14.0484 19.3066 13.5497 18.7831 13.1833C18.2596 12.8169 17.6483 12.5959 17.0115 12.5429V12.5443ZM10.9312 2.84536V6.83011L9.53116 5.70983C9.47783 5.66711 9.41154 5.64383 9.34321 5.64383C9.27488 5.64383 9.20859 5.66711 9.15527 5.70983L7.75534 6.83028V2.84536H10.9312ZM2.27734 16.978V2.84536H7.15378V7.45608C7.1538 7.51272 7.16982 7.5682 7.19999 7.61615C7.23015 7.66409 7.27324 7.70254 7.3243 7.72707C7.37536 7.7516 7.4323 7.76121 7.48858 7.75481C7.54486 7.7484 7.59819 7.72624 7.64242 7.69086L9.34398 6.32995L11.0455 7.69086C11.0898 7.72583 11.143 7.74765 11.1991 7.75383C11.2551 7.76002 11.3118 7.75032 11.3626 7.72583C11.4134 7.70135 11.4563 7.66308 11.4864 7.61538C11.5165 7.56768 11.5326 7.51248 11.5328 7.45608V2.84536H16.4099V12.5443C15.891 12.5853 15.3871 12.7386 14.9332 12.9934C14.4792 13.2482 14.086 13.5985 13.7806 14.0201C13.4752 14.4418 13.2651 14.9247 13.1646 15.4354C13.064 15.9462 13.0756 16.4728 13.1985 16.9786L2.27734 16.978ZM16.7107 19.1546C16.115 19.1546 15.5327 18.9779 15.0374 18.647C14.5421 18.316 14.156 17.8456 13.9281 17.2953C13.7001 16.7449 13.6404 16.1393 13.7567 15.555C13.8729 14.9708 14.1597 14.4341 14.581 14.0129C15.0022 13.5917 15.5389 13.3048 16.1231 13.1886C16.7074 13.0724 17.313 13.132 17.8633 13.36C18.4137 13.5879 18.8841 13.974 19.2151 14.4693C19.546 14.9646 19.7227 15.5469 19.7227 16.1426C19.7217 16.9412 19.4041 17.7067 18.8395 18.2714C18.2748 18.836 17.5093 19.1537 16.7107 19.1546Z" fill="#0078D6"/>
<path fill-rule="evenodd" clip-rule="evenodd" d="M15.3681 14.71C15.5023 14.5758 15.72 14.5758 15.8542 14.71L18.1181 16.9739C18.2523 17.1081 18.2523 17.3258 18.1181 17.46C17.9838 17.5943 17.7662 17.5943 17.6319 17.46L15.3681 15.1962C15.2338 15.0619 15.2338 14.8443 15.3681 14.71Z" fill="#0078D6"/>
<path fill-rule="evenodd" clip-rule="evenodd" d="M15.3976 17.46C15.2633 17.3258 15.2633 17.1081 15.3976 16.9739L17.6614 14.71C17.7957 14.5758 18.0133 14.5758 18.1476 14.71C18.2818 14.8443 18.2818 15.0619 18.1476 15.1962L15.8837 17.46C15.7494 17.5943 15.5318 17.5943 15.3976 17.46Z" fill="#0078D6"/>
</svg>
