<svg width="26" height="26" viewBox="0 0 26 26" fill="none" xmlns="http://www.w3.org/2000/svg">
<path d="M24.014 6.74245C24.0032 6.68365 23.9778 6.62853 23.94 6.58216C23.9023 6.5358 23.8535 6.49969 23.7981 6.47716L16.1587 3.37847C16.0961 3.35302 16.0274 3.34599 15.9609 3.35818C15.8944 3.37038 15.8327 3.40131 15.7831 3.44733L12.8063 6.21208L5.22706 9.2862C5.22564 9.2862 5.22543 9.28823 5.22401 9.28884C5.18535 9.30459 5.14979 9.32708 5.119 9.35526L2.09424 12.1643C2.05056 12.205 2.01782 12.256 1.99905 12.3126C1.98029 12.3693 1.9761 12.4297 1.98686 12.4884C1.99763 12.5471 2.02301 12.6022 2.06067 12.6485C2.09832 12.6948 2.14703 12.7309 2.2023 12.7534L5.00545 13.8909V18.9721C5.00563 19.0412 5.02596 19.1087 5.06395 19.1665C5.10194 19.2242 5.15594 19.2696 5.21934 19.2971L12.8579 22.6184C12.9016 22.6381 12.9491 22.6481 12.997 22.6478C13.045 22.6476 13.0923 22.637 13.1358 22.6168C13.1374 22.6168 13.1397 22.619 13.1411 22.6184L20.7803 19.2983C20.8437 19.2708 20.8977 19.2254 20.9356 19.1677C20.9736 19.11 20.994 19.0424 20.9942 18.9733V9.77045L23.906 7.06704C23.9498 7.02638 23.9827 6.97532 24.0016 6.91859C24.0205 6.86185 24.0248 6.80127 24.014 6.74245V6.74245ZM13.3556 12.1864V7.0447L19.6931 9.61567L13.3556 12.1864ZM12.6446 7.0447V12.1864L6.30708 9.61567L12.6446 7.0447ZM5.43689 10.0307L12.3491 12.8338L9.89897 15.1088L5.50026 13.3252L5.49762 13.3242L2.98698 12.3057L5.43689 10.0307ZM5.71639 14.1801L9.84149 15.8527C9.90425 15.8781 9.97297 15.885 10.0395 15.8727C10.1061 15.8603 10.1678 15.8292 10.2173 15.783L12.6448 13.5283V21.7492L5.71639 18.7393V14.1801ZM13.3556 21.7505V12.9537L20.2838 10.1434V18.7393L13.3556 21.7505ZM20.5633 9.2017L13.6511 6.39855L16.1012 4.12353L23.0132 6.92668L20.5633 9.2017Z" fill="#0078D6"/>
</svg>
