<svg width="22" height="22" viewBox="0 0 22 22" fill="none" xmlns="http://www.w3.org/2000/svg">
<path d="M10.8281 19.7675V11.0068C10.8281 10.9594 10.8093 10.914 10.7758 10.8805C10.7423 10.8469 10.6968 10.8281 10.6495 10.8281H1.89741C1.85003 10.8281 1.80459 10.8469 1.77108 10.8805C1.73757 10.914 1.71875 10.9594 1.71875 11.0068V19.7588C1.71875 19.8062 1.73757 19.8517 1.77108 19.8852C1.80459 19.9187 1.85003 19.9375 1.89741 19.9375H10.6774C10.7795 19.9375 10.8281 19.8696 10.8281 19.7675ZM7.21647 11.1855V13.5524L6.38472 12.8869C6.35304 12.8616 6.31367 12.8477 6.27308 12.8477C6.23249 12.8477 6.19312 12.8616 6.16144 12.8869L5.32969 13.5524V11.1855H7.21647ZM2.07608 19.5802V11.1855H4.97277V13.9242C4.97278 13.9579 4.9823 13.9908 5.00022 14.0193C5.01813 14.0478 5.04373 14.0706 5.07406 14.0852C5.10438 14.0997 5.13821 14.1055 5.17164 14.1017C5.20507 14.0978 5.23674 14.0847 5.26302 14.0637L6.27374 13.2553L7.28447 14.0637C7.31075 14.0844 7.34234 14.0973 7.37563 14.101C7.40891 14.1047 7.44255 14.0989 7.47271 14.0844C7.50288 14.0698 7.52835 14.0471 7.54622 14.0188C7.56409 13.9905 7.57365 13.9577 7.5738 13.9242V11.1855H10.4708V19.5804L2.07608 19.5802Z" fill="#0078D6"/>
<path fill-rule="evenodd" clip-rule="evenodd" d="M4.97277 13.9242V11.1855H2.07608V19.5802L10.4708 19.5804V11.1855H7.5738V13.9242C7.57365 13.9577 7.56409 13.9905 7.54622 14.0188C7.52835 14.0471 7.50288 14.0698 7.47271 14.0844C7.44255 14.0989 7.40891 14.1047 7.37563 14.101C7.34234 14.0973 7.31075 14.0844 7.28447 14.0637L6.27374 13.2553L5.26302 14.0637C5.23674 14.0847 5.20507 14.0978 5.17164 14.1017C5.13821 14.1055 5.10438 14.0997 5.07406 14.0852C5.04373 14.0706 5.01813 14.0478 5.00022 14.0193C4.9823 13.9908 4.97278 13.9579 4.97277 13.9242ZM6.27374 13.3653L5.3167 14.1308C5.27778 14.1619 5.23087 14.1814 5.18136 14.187C5.13185 14.1927 5.08175 14.1842 5.03684 14.1626C4.99193 14.1411 4.95402 14.1072 4.92748 14.0651C4.90094 14.0229 4.88685 13.9741 4.88683 13.9242V11.2714H2.16201V19.4942L10.3849 19.4944V11.2714H7.65974V13.9246C7.65951 13.9742 7.64536 14.0227 7.61889 14.0646C7.59242 14.1066 7.5547 14.1402 7.51003 14.1618C7.46536 14.1833 7.41553 14.1918 7.36624 14.1864C7.31695 14.181 7.27017 14.1618 7.23123 14.1311L7.23079 14.1308L6.27374 13.3653ZM10.9141 19.7675C10.9141 19.8308 10.8991 19.8956 10.8569 19.946C10.8127 19.9988 10.7489 20.0234 10.6774 20.0234H1.89741C1.82724 20.0234 1.75993 19.9956 1.71031 19.9459C1.66069 19.8963 1.63281 19.829 1.63281 19.7588V11.0068C1.63281 10.9366 1.66069 10.8693 1.71031 10.8197C1.75993 10.7701 1.82724 10.7422 1.89741 10.7422H10.6495C10.7196 10.7422 10.7869 10.7701 10.8366 10.8197C10.8862 10.8693 10.9141 10.9366 10.9141 11.0068V19.7675ZM7.13054 13.3736V11.2714H5.41562V13.3736L6.10771 12.8199C6.15463 12.7823 6.21296 12.7618 6.27308 12.7618C6.3332 12.7618 6.39153 12.7823 6.43845 12.8199L7.13054 13.3736ZM7.21647 13.5524L6.38472 12.8869C6.35304 12.8616 6.31367 12.8477 6.27308 12.8477C6.23249 12.8477 6.19312 12.8616 6.16144 12.8869L5.32969 13.5524V11.1855H7.21647V13.5524ZM10.8281 19.7675C10.8281 19.8696 10.7795 19.9375 10.6774 19.9375H1.89741C1.85003 19.9375 1.80459 19.9187 1.77108 19.8852C1.73757 19.8517 1.71875 19.8062 1.71875 19.7588V11.0068C1.71875 10.9594 1.73757 10.914 1.77108 10.8805C1.80459 10.8469 1.85003 10.8281 1.89741 10.8281H10.6495C10.6968 10.8281 10.7423 10.8469 10.7758 10.8805C10.8093 10.914 10.8281 10.9594 10.8281 11.0068V19.7675Z" fill="#0078D6"/>
<path d="M10.8281 11.0019V2.24116C10.8281 2.19378 10.8093 2.14834 10.7758 2.11483C10.7423 2.08132 10.6968 2.0625 10.6495 2.0625H1.89741C1.85003 2.0625 1.80459 2.08132 1.77108 2.11483C1.73757 2.14834 1.71875 2.19378 1.71875 2.24116V10.9932C1.71875 11.0406 1.73757 11.086 1.77108 11.1195C1.80459 11.1531 1.85003 11.1719 1.89741 11.1719H10.6774C10.7795 11.1719 10.8281 11.104 10.8281 11.0019ZM7.21647 2.41983V4.78676L6.38472 4.12131C6.35304 4.09594 6.31367 4.08211 6.27308 4.08211C6.23249 4.08211 6.19312 4.09594 6.16144 4.12131L5.32969 4.78676V2.41983H7.21647ZM2.07608 10.8145V2.41983H4.97277V5.15858C4.97278 5.19223 4.9823 5.22518 5.00022 5.25366C5.01813 5.28214 5.04373 5.30498 5.07406 5.31955C5.10438 5.33412 5.13821 5.33983 5.17164 5.33603C5.20507 5.33222 5.23674 5.31905 5.26302 5.29804L6.27374 4.48967L7.28447 5.29804C7.31075 5.31878 7.34234 5.33172 7.37563 5.33538C7.40891 5.33903 7.44255 5.33326 7.47271 5.31872C7.50288 5.30419 7.52835 5.28146 7.54622 5.25315C7.56409 5.22483 7.57365 5.19207 7.5738 5.15858V2.41983H10.4708V10.8148L2.07608 10.8145Z" fill="#0078D6"/>
<path fill-rule="evenodd" clip-rule="evenodd" d="M4.97277 5.15858V2.41983H2.07608V10.8145L10.4708 10.8148V2.41983H7.5738V5.15858C7.57365 5.19207 7.56409 5.22483 7.54622 5.25315C7.52835 5.28146 7.50288 5.30419 7.47271 5.31872C7.44255 5.33326 7.40891 5.33903 7.37563 5.33538C7.34234 5.33172 7.31075 5.31878 7.28447 5.29804L6.27374 4.48967L5.26302 5.29804C5.23674 5.31905 5.20507 5.33222 5.17164 5.33603C5.13821 5.33983 5.10438 5.33412 5.07406 5.31955C5.04373 5.30498 5.01813 5.28214 5.00022 5.25366C4.9823 5.22518 4.97278 5.19223 4.97277 5.15858ZM6.27374 4.59971L5.3167 5.36515C5.27778 5.39628 5.23087 5.41578 5.18136 5.42141C5.13185 5.42705 5.08175 5.41859 5.03684 5.39701C4.99193 5.37543 4.95402 5.34161 4.92748 5.29943C4.90094 5.25726 4.88685 5.20844 4.88683 5.15861V2.50576H2.16201V10.7286L10.3849 10.7288V2.50576H7.65974V5.15897C7.65951 5.20855 7.64536 5.25708 7.61889 5.29902C7.59242 5.34095 7.5547 5.37461 7.51003 5.39614C7.46536 5.41767 7.41553 5.42622 7.36624 5.4208C7.31695 5.41538 7.27017 5.39622 7.23123 5.36551L7.23079 5.36515L6.27374 4.59971ZM10.9141 11.0019C10.9141 11.0652 10.8991 11.13 10.8569 11.1804C10.8127 11.2331 10.7489 11.2578 10.6774 11.2578H1.89741C1.82724 11.2578 1.75993 11.2299 1.71031 11.1803C1.66069 11.1307 1.63281 11.0634 1.63281 10.9932V2.24116C1.63281 2.17099 1.66069 2.10368 1.71031 2.05406C1.75993 2.00444 1.82724 1.97656 1.89741 1.97656H10.6495C10.7196 1.97656 10.7869 2.00444 10.8366 2.05406C10.8862 2.10368 10.9141 2.17099 10.9141 2.24116V11.0019ZM7.13054 4.60795V2.50576H5.41562V4.60795L6.10771 4.05424C6.15463 4.01665 6.21296 3.99617 6.27308 3.99617C6.3332 3.99617 6.39153 4.01665 6.43845 4.05424L7.13054 4.60795ZM7.21647 4.78676L6.38472 4.12131C6.35304 4.09594 6.31367 4.08211 6.27308 4.08211C6.23249 4.08211 6.19312 4.09594 6.16144 4.12131L5.32969 4.78676V2.41983H7.21647V4.78676ZM10.8281 11.0019C10.8281 11.104 10.7795 11.1719 10.6774 11.1719H1.89741C1.85003 11.1719 1.80459 11.1531 1.77108 11.1195C1.73757 11.086 1.71875 11.0406 1.71875 10.9932V2.24116C1.71875 2.19378 1.73757 2.14834 1.77108 2.11483C1.80459 2.08132 1.85003 2.0625 1.89741 2.0625H10.6495C10.6968 2.0625 10.7423 2.08132 10.7758 2.11483C10.8093 2.14834 10.8281 2.19378 10.8281 2.24116V11.0019Z" fill="#0078D6"/>
<path d="M19.5938 19.7675V11.0068C19.5938 10.9594 19.5749 10.914 19.5414 10.8805C19.5079 10.8469 19.4625 10.8281 19.4151 10.8281H10.663C10.6157 10.8281 10.5702 10.8469 10.5367 10.8805C10.5032 10.914 10.4844 10.9594 10.4844 11.0068V19.7588C10.4844 19.8062 10.5032 19.8517 10.5367 19.8852C10.5702 19.9187 10.6157 19.9375 10.663 19.9375H19.4431C19.5452 19.9375 19.5938 19.8696 19.5938 19.7675ZM15.9821 11.1855V13.5524L15.1503 12.8869C15.1187 12.8616 15.0793 12.8477 15.0387 12.8477C14.9981 12.8477 14.9587 12.8616 14.9271 12.8869L14.0953 13.5524V11.1855H15.9821ZM10.8417 19.5802V11.1855H13.7384V13.9242C13.7384 13.9579 13.7479 13.9908 13.7658 14.0193C13.7838 14.0478 13.8094 14.0706 13.8397 14.0852C13.87 14.0997 13.9038 14.1055 13.9373 14.1017C13.9707 14.0978 14.0024 14.0847 14.0286 14.0637L15.0394 13.2553L16.0501 14.0637C16.0764 14.0844 16.108 14.0973 16.1412 14.101C16.1745 14.1047 16.2082 14.0989 16.2383 14.0844C16.2685 14.0698 16.294 14.0471 16.3118 14.0188C16.3297 13.9905 16.3393 13.9577 16.3394 13.9242V11.1855H19.2364V19.5804L10.8417 19.5802Z" fill="#0078D6"/>
<path fill-rule="evenodd" clip-rule="evenodd" d="M13.7384 13.9242V11.1855H10.8417V19.5802L19.2364 19.5804V11.1855H16.3394V13.9242C16.3393 13.9577 16.3297 13.9905 16.3118 14.0188C16.294 14.0471 16.2685 14.0698 16.2383 14.0844C16.2082 14.0989 16.1745 14.1047 16.1412 14.101C16.108 14.0973 16.0764 14.0844 16.0501 14.0637L15.0394 13.2553L14.0286 14.0637C14.0024 14.0847 13.9707 14.0978 13.9373 14.1017C13.9038 14.1055 13.87 14.0997 13.8397 14.0852C13.8094 14.0706 13.7838 14.0478 13.7658 14.0193C13.7479 13.9908 13.7384 13.9579 13.7384 13.9242ZM15.0394 13.3653L14.0823 14.1308C14.0434 14.1619 13.9965 14.1814 13.947 14.187C13.8975 14.1927 13.8474 14.1842 13.8025 14.1626C13.7576 14.1411 13.7196 14.1072 13.6931 14.0651C13.6666 14.0229 13.6525 13.9741 13.6525 13.9242V11.2714H10.9276V19.4942L19.1505 19.4944V11.2714H16.4254V13.9246C16.4251 13.9742 16.411 14.0227 16.3845 14.0646C16.358 14.1066 16.3203 14.1402 16.2757 14.1618C16.231 14.1833 16.1812 14.1918 16.1319 14.1864C16.0826 14.181 16.0358 14.1618 15.9969 14.1311L15.9964 14.1308L15.0394 13.3653ZM19.6797 19.7675C19.6797 19.8308 19.6648 19.8956 19.6226 19.946C19.5783 19.9988 19.5145 20.0234 19.4431 20.0234H10.663C10.5929 20.0234 10.5256 19.9956 10.4759 19.9459C10.4263 19.8963 10.3984 19.829 10.3984 19.7588V11.0068C10.3984 10.9366 10.4263 10.8693 10.4759 10.8197C10.5256 10.7701 10.5929 10.7422 10.663 10.7422H19.4151C19.4853 10.7422 19.5526 10.7701 19.6022 10.8197C19.6518 10.8693 19.6797 10.9366 19.6797 11.0068V19.7675ZM15.8962 13.3736V11.2714H14.1813V13.3736L14.8733 12.8199C14.9203 12.7823 14.9786 12.7618 15.0387 12.7618C15.0988 12.7618 15.1572 12.7823 15.2041 12.8199L15.8962 13.3736ZM15.9821 13.5524L15.1503 12.8869C15.1187 12.8616 15.0793 12.8477 15.0387 12.8477C14.9981 12.8477 14.9587 12.8616 14.9271 12.8869L14.0953 13.5524V11.1855H15.9821V13.5524ZM19.5938 19.7675C19.5938 19.8696 19.5452 19.9375 19.4431 19.9375H10.663C10.6157 19.9375 10.5702 19.9187 10.5367 19.8852C10.5032 19.8517 10.4844 19.8062 10.4844 19.7588V11.0068C10.4844 10.9594 10.5032 10.914 10.5367 10.8805C10.5702 10.8469 10.6157 10.8281 10.663 10.8281H19.4151C19.4625 10.8281 19.5079 10.8469 19.5414 10.8805C19.5749 10.914 19.5938 10.9594 19.5938 11.0068V19.7675Z" fill="#0078D6"/>
<path fill-rule="evenodd" clip-rule="evenodd" d="M15.4066 7.83159C15.4066 7.64174 15.5605 7.48784 15.7503 7.48784H15.7553C15.9451 7.48784 16.099 7.64174 16.099 7.83159C16.099 8.02144 15.9451 8.17534 15.7553 8.17534H15.7503C15.5605 8.17534 15.4066 8.02144 15.4066 7.83159Z" fill="#0078D6"/>
<path d="M15.1236 3.32695C15.3593 3.18839 15.6365 3.13774 15.9061 3.18397C16.1756 3.2302 16.4201 3.37033 16.5962 3.57954C16.7723 3.78875 16.8687 4.05354 16.8683 4.32701L16.8683 4.32752C16.8683 4.64561 16.6252 4.93135 16.2705 5.1678C16.1036 5.27905 15.9343 5.36396 15.8053 5.42127C15.7413 5.44971 15.6885 5.47083 15.6524 5.48456C15.6355 5.491 15.6185 5.49732 15.6014 5.5032C15.4627 5.54961 15.3665 5.68292 15.3665 5.82925V6.56271C15.3665 6.75255 15.5204 6.90646 15.7103 6.90646C15.9001 6.90646 16.054 6.75255 16.054 6.56271V6.06293C16.064 6.05861 16.0741 6.05414 16.0845 6.04952C16.2372 5.98169 16.4433 5.87888 16.6518 5.73984C17.0479 5.47577 17.5555 5.01082 17.5558 4.32803C17.5564 3.8922 17.4028 3.47021 17.1221 3.13679C16.8415 2.80337 16.4518 2.58004 16.0223 2.50636C15.5927 2.43268 15.151 2.51341 14.7752 2.73423C14.3995 2.95506 14.114 3.30174 13.9694 3.71287C13.9064 3.89196 14.0005 4.08821 14.1796 4.15121C14.3587 4.21421 14.5549 4.1201 14.6179 3.94101C14.7087 3.68304 14.8878 3.46551 15.1236 3.32695Z" fill="#0078D6"/>
</svg>
