<svg width="22" height="22" viewBox="0 0 22 22" fill="none" xmlns="http://www.w3.org/2000/svg">
<path d="M20.0234 17.7221H18.5348L17.3594 11.5157L18.4893 6.70322V6.40244C18.489 6.3306 18.4628 6.26126 18.4155 6.20719C18.414 6.2053 18.4138 6.20323 18.4121 6.20134L16.5138 4.0914C16.4856 4.06004 16.4511 4.03496 16.4126 4.01779C16.3741 4.00061 16.3325 3.99173 16.2903 3.99172L12.2891 3.6765H5.66431C5.62216 3.67651 5.58048 3.68539 5.54199 3.70257C5.50349 3.71974 5.46904 3.74482 5.44088 3.77619L3.54234 5.88595C3.54131 5.88715 3.54131 5.88905 3.54028 5.89008C3.4921 5.9444 3.46539 6.01443 3.46517 6.08705V6.388L4.21094 12.6329L3.46517 17.7221H1.97656C1.89679 17.7221 1.82029 17.7538 1.76388 17.8102C1.70747 17.8666 1.67578 17.9431 1.67578 18.0229C1.67578 18.1027 1.70747 18.1792 1.76388 18.2356C1.82029 18.292 1.89679 18.3237 1.97656 18.3237H20.0234C20.1032 18.3237 20.1797 18.292 20.2361 18.2356C20.2925 18.1792 20.3242 18.1027 20.3242 18.0229C20.3242 17.9431 20.2925 17.8666 20.2361 17.8102C20.1797 17.7538 20.1032 17.7221 20.0234 17.7221ZM17.5134 6.10165L13.1732 5.78644L12.325 4.27806L16.1562 4.59328L17.5134 6.10165ZM9.30359 6.388H12.6966V8.88019L11.1389 8.07048C11.096 8.04822 11.0485 8.03659 11.0002 8.03659C10.9519 8.03659 10.9043 8.04822 10.8615 8.07048L9.30377 8.88019L9.30359 6.388ZM11.6349 4.27806L12.4831 5.78626H9.51689L10.3651 4.27806H11.6349ZM5.79838 4.27806H9.67502L8.82681 5.78626H4.44108L5.79838 4.27806ZM4.06673 17.7221L4.8125 12.6329L4.06673 6.388H8.70186V9.37605C8.70196 9.42768 8.71535 9.47842 8.74074 9.52339C8.76613 9.56835 8.80267 9.60602 8.84684 9.63276C8.89101 9.65951 8.94132 9.67444 8.99293 9.6761C9.04454 9.67777 9.09571 9.66612 9.14152 9.64228L11 8.67669L12.8585 9.64228C12.9043 9.66611 12.9555 9.67772 13.0072 9.676C13.0588 9.67428 13.1092 9.65929 13.1533 9.63247C13.1975 9.60565 13.234 9.5679 13.2593 9.52286C13.2847 9.47783 13.298 9.42703 13.298 9.37536V6.388L17.8877 6.70322L16.7578 11.5157L17.9333 17.7221H4.06673Z" fill="#0078D6"/>
</svg>
