<svg width="70" height="70" viewBox="0 0 70 70" fill="none" xmlns="http://www.w3.org/2000/svg">
<rect x="0.5" y="0.5" width="69" height="69" rx="34.5" fill="white" stroke="#E6E6E6"/>
<path d="M36.1924 24.6474V36.0306L43.7774 41.1055L43.7785 41.1062C43.9611 41.2297 44.0875 41.419 44.1303 41.6334C44.1732 41.8483 44.1289 42.0712 44.0068 42.2541C43.8848 42.437 43.6947 42.5652 43.4778 42.6111C43.2634 42.6565 43.0396 42.6179 42.8536 42.5037L34.5006 36.9152V24.6474C34.5006 24.426 34.5898 24.2137 34.7484 24.0571C34.907 23.9006 35.1222 23.8126 35.3465 23.8126C35.5709 23.8126 35.786 23.9006 35.9447 24.0571C36.1033 24.2137 36.1924 24.426 36.1924 24.6474Z" fill="#ED412C"/>
<path d="M24.8119 28.6153H12.5534V16.5182C12.5534 16.2968 12.6426 16.0844 12.8012 15.9279C12.9598 15.7714 13.175 15.6834 13.3993 15.6834C13.6237 15.6834 13.8388 15.7714 13.9975 15.9279C14.1561 16.0844 14.2452 16.2968 14.2452 16.5182V26.1696L15.4017 24.1207C17.3824 20.6117 20.2742 17.6863 23.7798 15.6452C27.2851 13.6043 31.2778 12.5211 35.3477 12.5068C39.0508 12.5064 42.6982 13.3963 45.9744 15.0996C49.251 16.8031 52.0576 19.2688 54.1513 22.2834C56.2451 25.298 57.5629 28.7707 57.9909 32.4009C58.4188 36.0311 57.9439 39.7096 56.6073 43.118C55.2707 46.5264 53.1126 49.562 50.3198 51.9623C47.527 54.3625 44.1836 56.055 40.5789 56.8934C36.9743 57.7317 33.2168 57.6907 29.6319 56.7737C26.047 55.8568 22.7426 54.0917 20.0044 51.6312C19.9221 51.5571 19.8554 51.4678 19.8081 51.3683C19.7608 51.2688 19.7338 51.161 19.7287 51.0512C19.7236 50.9414 19.7405 50.8317 19.7783 50.7283C19.8162 50.6249 19.8743 50.5299 19.9494 50.4487C20.0244 50.3675 20.115 50.3016 20.2158 50.2549C20.3167 50.2083 20.4259 50.1816 20.5371 50.1766C20.6484 50.1715 20.7596 50.1882 20.8644 50.2255C20.9691 50.2629 21.0654 50.3203 21.1477 50.3943L21.1483 50.3949C24.4321 53.3433 28.5745 55.1945 32.9862 55.685C37.3978 56.1756 41.8538 55.2805 45.7202 53.1272C49.5865 50.9739 52.6661 47.672 54.5207 43.6915C56.3754 39.711 56.9106 35.2546 56.0501 30.9565C55.1897 26.6585 52.9775 22.7377 49.7284 19.7522C46.4792 16.7666 42.3586 14.8685 37.953 14.3278C33.5474 13.7872 29.0812 14.6315 25.19 16.7408C21.2988 18.85 18.1809 22.1166 16.2799 26.0758L15.8622 26.9458H24.8119C25.0362 26.9458 25.2514 27.0337 25.41 27.1903C25.5686 27.3468 25.6578 27.5591 25.6578 27.7805C25.6578 28.0019 25.5686 28.2142 25.41 28.3708C25.2514 28.5273 25.0362 28.6153 24.8119 28.6153Z" fill="#ED412C"/>
</svg>
