<svg width="70" height="70" viewBox="0 0 70 70" fill="none" xmlns="http://www.w3.org/2000/svg">
<rect x="0.5" y="0.5" width="69" height="69" rx="34.5" fill="white" stroke="#E6E6E6"/>
<path fill-rule="evenodd" clip-rule="evenodd" d="M16.2077 23.5259H54.4856C55.6219 23.5259 56.5431 24.4349 56.5431 25.5564V44.0374C56.5431 45.1588 55.622 46.0679 54.4856 46.0679H16.2077C15.0714 46.0679 14.1501 45.1588 14.1501 44.0374V25.5564C14.1501 24.435 15.0713 23.5259 16.2077 23.5259ZM16.2077 25.1503C15.9804 25.1503 15.7962 25.3321 15.7962 25.5564V44.0374C15.7962 44.2617 15.9804 44.4435 16.2077 44.4435H54.4856C54.7129 44.4435 54.8971 44.2617 54.8971 44.0374V25.5564C54.8971 25.3321 54.7129 25.1503 54.4856 25.1503H16.2077Z" fill="#ED412C"/>
<path fill-rule="evenodd" clip-rule="evenodd" d="M35.3467 41.8297C39.0995 41.8297 42.2227 38.7257 42.2227 34.7969C42.2227 30.868 39.0995 27.764 35.3467 27.764C31.5939 27.764 28.4707 30.868 28.4707 34.7969C28.4707 38.7257 31.5939 41.8297 35.3467 41.8297ZM35.3467 43.4541C40.0533 43.4541 43.8687 39.5781 43.8687 34.7969C43.8687 30.0156 40.0533 26.1396 35.3467 26.1396C30.6401 26.1396 26.8247 30.0156 26.8247 34.7969C26.8247 39.5781 30.6401 43.4541 35.3467 43.4541Z" fill="#ED412C"/>
<path fill-rule="evenodd" clip-rule="evenodd" d="M35.3465 37.2002C35.801 37.2002 36.1695 37.5638 36.1695 38.0124L36.1695 39.4965C36.1695 39.945 35.801 40.3087 35.3465 40.3087C34.8919 40.3087 34.5234 39.945 34.5234 39.4965L34.5234 38.0124C34.5234 37.5638 34.8919 37.2002 35.3465 37.2002Z" fill="#ED412C"/>
<path fill-rule="evenodd" clip-rule="evenodd" d="M35.3465 29.2852C35.801 29.2852 36.1695 29.6488 36.1695 30.0973L36.1695 31.5814C36.1695 32.03 35.801 32.3936 35.3465 32.3936C34.8919 32.3936 34.5234 32.03 34.5234 31.5814L34.5234 30.0973C34.5234 29.6488 34.8919 29.2852 35.3465 29.2852Z" fill="#ED412C"/>
<path fill-rule="evenodd" clip-rule="evenodd" d="M32.6667 31.6039C33.0901 31.1561 33.6771 30.8931 34.3022 30.8931H37.4353C37.8898 30.8931 38.2583 31.2567 38.2583 31.7053C38.2583 32.1538 37.8898 32.5174 37.4353 32.5174H34.3022C34.1518 32.5174 33.995 32.5801 33.87 32.7122C33.7433 32.8462 33.6631 33.0392 33.6631 33.2512C33.6631 33.4632 33.7433 33.6562 33.87 33.7902C33.995 33.9222 34.1518 33.9849 34.3022 33.9849H36.3909C37.016 33.9849 37.603 34.248 38.0265 34.6957C38.4482 35.1416 38.6761 35.735 38.6761 36.3431C38.6761 36.9511 38.4482 37.5445 38.0265 37.9904C37.603 38.4381 37.016 38.7012 36.3909 38.7012H32.8401C32.3856 38.7012 32.0171 38.3375 32.0171 37.889C32.0171 37.4404 32.3856 37.0768 32.8401 37.0768H36.3909C36.5414 37.0768 36.6982 37.0141 36.8231 36.882C36.9499 36.748 37.03 36.555 37.03 36.3431C37.03 36.1311 36.9499 35.9381 36.8231 35.8041C36.6982 35.672 36.5414 35.6093 36.3909 35.6093H34.3022C33.6771 35.6093 33.0901 35.3462 32.6667 34.8985C32.245 34.4526 32.0171 33.8592 32.0171 33.2512C32.0171 32.6432 32.245 32.0497 32.6667 31.6039Z" fill="#ED412C"/>
<path fill-rule="evenodd" clip-rule="evenodd" d="M21.2035 27.2156C21.5113 26.4823 21.6697 25.6965 21.6697 24.9028H23.3157C23.3157 25.9098 23.1147 26.9069 22.7242 27.8372C22.3338 28.7675 21.7614 29.6128 21.0399 30.3248C20.3184 31.0368 19.4618 31.6016 18.5191 31.987C17.5764 32.3723 16.566 32.5706 15.5457 32.5706V30.9463C16.3499 30.9463 17.1462 30.7899 17.8892 30.4862C18.6322 30.1825 19.3073 29.7374 19.876 29.1762C20.4447 28.615 20.8957 27.9488 21.2035 27.2156Z" fill="#ED412C"/>
<path fill-rule="evenodd" clip-rule="evenodd" d="M21.2035 42.3782C21.5113 43.1114 21.6697 43.8973 21.6697 44.6909H23.3157C23.3157 43.684 23.1147 42.6869 22.7242 41.7566C22.3338 40.8263 21.7614 39.981 21.0399 39.269C20.3184 38.5569 19.4618 37.9921 18.5191 37.6068C17.5764 37.2214 16.566 37.0231 15.5457 37.0231V38.6475C16.3499 38.6475 17.1462 38.8038 17.8892 39.1075C18.6322 39.4112 19.3073 39.8564 19.876 40.4176C20.4447 40.9787 20.8957 41.645 21.2035 42.3782Z" fill="#ED412C"/>
<path fill-rule="evenodd" clip-rule="evenodd" d="M49.4901 42.3782C49.1823 43.1114 49.0239 43.8973 49.0239 44.6909H47.3779C47.3779 43.684 47.5789 42.6869 47.9694 41.7566C48.3598 40.8263 48.9322 39.981 49.6537 39.269C50.3752 38.5569 51.2318 37.9921 52.1745 37.6068C53.1172 37.2214 54.1276 37.0231 55.1479 37.0231V38.6475C54.3437 38.6475 53.5474 38.8038 52.8044 39.1075C52.0614 39.4112 51.3863 39.8564 50.8176 40.4176C50.2489 40.9787 49.7979 41.645 49.4901 42.3782Z" fill="#ED412C"/>
<path fill-rule="evenodd" clip-rule="evenodd" d="M49.4901 27.2156C49.1823 26.4823 49.0239 25.6965 49.0239 24.9028H47.3779C47.3779 25.9098 47.5789 26.9069 47.9694 27.8372C48.3598 28.7675 48.9322 29.6128 49.6537 30.3248C50.3752 31.0368 51.2318 31.6016 52.1745 31.987C53.1172 32.3723 54.1276 32.5706 55.1479 32.5706V30.9463C54.3437 30.9463 53.5474 30.7899 52.8044 30.4862C52.0614 30.1825 51.3863 29.7374 50.8176 29.1762C50.2489 28.615 49.7979 27.9488 49.4901 27.2156Z" fill="#ED412C"/>
</svg>
