<svg width="21" height="21" viewBox="0 0 21 21" fill="none" xmlns="http://www.w3.org/2000/svg">
<path d="M16.7862 4.65407C15.9453 3.81905 14.946 3.1604 13.847 2.71679C12.7481 2.27318 11.5716 2.05354 10.3866 2.07076C8.16217 2.0652 6.0266 2.94354 4.44973 4.51254C2.87286 6.08155 1.98386 8.2127 1.9783 10.4372C1.97274 12.6616 2.85107 14.7972 4.42008 16.3741C5.98908 17.9509 8.12023 18.8399 10.3447 18.8455C10.824 18.8537 11.2925 18.7024 11.6766 18.4155C12.0606 18.1286 12.3386 17.7223 12.4667 17.2603C12.5484 16.9267 12.5475 16.5782 12.4642 16.245C12.3809 15.9118 12.2177 15.6039 11.9886 15.348C11.9357 15.2877 11.9011 15.2135 11.8891 15.1342C11.877 15.0548 11.888 14.9737 11.9206 14.9004C11.9533 14.8271 12.0063 14.7648 12.0734 14.7207C12.1404 14.6766 12.2187 14.6527 12.299 14.6518H13.6829C14.9854 14.6579 16.242 14.171 17.2003 13.2889C18.1587 12.4068 18.7479 11.1947 18.8495 9.89618C18.8807 8.92796 18.7138 7.96356 18.359 7.06214C18.0042 6.16072 17.469 5.34128 16.7862 4.65407V4.65407ZM13.7164 12.9743H12.3325C11.9283 12.9721 11.5322 13.0871 11.1921 13.3055C10.852 13.5239 10.5826 13.8363 10.4166 14.2048C10.2506 14.5733 10.195 14.982 10.2567 15.3815C10.3184 15.7809 10.4946 16.1539 10.7641 16.4551C10.8165 16.508 10.8536 16.5743 10.8713 16.6467C10.8891 16.719 10.8868 16.7949 10.8647 16.8661C10.8228 17.0422 10.6299 17.1513 10.3699 17.168C9.41733 17.1558 8.47831 16.9409 7.61527 16.5377C6.75223 16.1344 5.98496 15.5519 5.36448 14.8291C4.74401 14.1063 4.28455 13.2596 4.01669 12.3454C3.74882 11.4313 3.67869 10.4705 3.81094 9.52714C4.05012 7.94188 4.84221 6.49228 6.04713 5.43472C7.25204 4.37716 8.79214 3.77978 10.395 3.74824H10.4621C11.4106 3.73582 12.352 3.91348 13.2307 4.27072C14.1094 4.62797 14.9077 5.15758 15.5784 5.82831C16.1018 6.35201 16.513 6.97684 16.787 7.66468C17.061 8.35251 17.192 9.08896 17.172 9.82908C17.0852 10.6872 16.6843 11.4829 16.0465 12.0634C15.4087 12.644 14.5789 12.9684 13.7164 12.9743V12.9743Z" fill="white"/>
<path d="M10.462 7.10264C11.1568 7.10264 11.7201 6.53937 11.7201 5.84453C11.7201 5.1497 11.1568 4.58643 10.462 4.58643C9.76713 4.58643 9.20386 5.1497 9.20386 5.84453C9.20386 6.53937 9.76713 7.10264 10.462 7.10264Z" fill="white"/>
<path d="M13.188 6.43189C12.9725 6.55632 12.7989 6.74183 12.6889 6.96495C12.5788 7.18808 12.5375 7.43881 12.5699 7.68545C12.6024 7.9321 12.7072 8.16358 12.8712 8.35064C13.0352 8.53771 13.251 8.67196 13.4913 8.73642C13.7315 8.80089 13.9855 8.79267 14.2211 8.71281C14.4567 8.63296 14.6634 8.48505 14.8149 8.28777C14.9665 8.0905 15.0562 7.85273 15.0726 7.6045C15.0891 7.35627 15.0316 7.10874 14.9074 6.89319C14.8248 6.74994 14.7149 6.62435 14.5838 6.52363C14.4526 6.4229 14.303 6.349 14.1433 6.30616C13.9836 6.26331 13.817 6.25237 13.6531 6.27394C13.4892 6.29551 13.3311 6.34918 13.188 6.43189V6.43189ZM7.73617 6.43189C7.52062 6.30769 7.27309 6.25018 7.02486 6.26664C6.77664 6.28309 6.53886 6.37276 6.34159 6.52432C6.14432 6.67588 5.9964 6.88253 5.91655 7.11813C5.83669 7.35374 5.82848 7.60773 5.89294 7.848C5.9574 8.08827 6.09165 8.30404 6.27872 8.46803C6.46578 8.63202 6.69727 8.73688 6.94391 8.76934C7.19055 8.8018 7.44128 8.76041 7.66441 8.6504C7.88754 8.5404 8.07304 8.36671 8.19748 8.1513C8.28018 8.00813 8.33385 7.85007 8.35542 7.68615C8.37699 7.52223 8.36605 7.35566 8.3232 7.19598C8.28036 7.03629 8.20646 6.88661 8.10574 6.7555C8.00501 6.6244 7.87943 6.51443 7.73617 6.43189V6.43189ZM5.56384 9.83716C5.35748 9.97649 5.19711 10.1739 5.10303 10.4045C5.00895 10.635 4.98539 10.8883 5.03534 11.1322C5.08528 11.3761 5.20648 11.5997 5.3836 11.7748C5.56071 11.9498 5.78577 12.0683 6.03028 12.1153C6.27479 12.1623 6.52776 12.1357 6.75715 12.0389C6.98654 11.9421 7.18204 11.7793 7.3189 11.5713C7.45575 11.3633 7.52781 11.1194 7.52594 10.8704C7.52408 10.6214 7.44837 10.3786 7.30841 10.1727C7.21647 10.0354 7.09822 9.91773 6.96051 9.82646C6.8228 9.73519 6.66836 9.67213 6.50612 9.64093C6.34389 9.60973 6.17707 9.61101 6.01533 9.64469C5.85359 9.67837 5.70014 9.74379 5.56384 9.83716V9.83716Z" fill="white"/>
</svg>
