<svg width="22" height="22" viewBox="0 0 22 22" fill="none" xmlns="http://www.w3.org/2000/svg">
<path d="M20.0234 17.7218H18.535V6.08686C18.5347 6.0154 18.5088 5.94642 18.462 5.89247C18.4604 5.89041 18.4594 5.88748 18.4578 5.88576L16.5593 3.776C16.5311 3.7447 16.4966 3.71967 16.4581 3.70253C16.4197 3.68539 16.378 3.67652 16.3359 3.67648H5.66431C5.62218 3.67652 5.58052 3.68539 5.54203 3.70253C5.50355 3.71967 5.46908 3.7447 5.44088 3.776L3.54217 5.88559C3.5408 5.88714 3.54028 5.88937 3.53908 5.89092C3.49156 5.94509 3.46524 6.01463 3.465 6.08669V17.7216H1.97656C1.89679 17.7216 1.82029 17.7533 1.76388 17.8097C1.70747 17.8661 1.67578 17.9426 1.67578 18.0224C1.67578 18.1021 1.70747 18.1787 1.76388 18.2351C1.82029 18.2915 1.89679 18.3232 1.97656 18.3232H20.0234C20.1032 18.3232 20.1797 18.2915 20.2361 18.2351C20.2925 18.1787 20.3242 18.1021 20.3242 18.0224C20.3242 17.9426 20.2925 17.8661 20.2361 17.8097C20.1797 17.7533 20.1032 17.7216 20.0234 17.7216V17.7218ZM17.5589 5.78608H13.1732L12.3252 4.27805H16.2018L17.5589 5.78608ZM9.30342 6.38764H12.6966V8.87983L11.1387 8.07012C11.0959 8.04786 11.0483 8.03623 11.0001 8.03623C10.9518 8.03623 10.9043 8.04786 10.8615 8.07012L9.30359 8.87983L9.30342 6.38764ZM11.6349 4.27805L12.4831 5.78608H9.51689L10.3651 4.27805H11.6349ZM5.7982 4.27805H9.67484L8.82664 5.78608H4.44108L5.7982 4.27805ZM6.41695 17.7219L7.04928 16.2643L9.13258 15.2658C9.16881 15.2484 9.20118 15.2239 9.22775 15.1937C9.25433 15.1635 9.27456 15.1283 9.28727 15.0902L9.73964 13.7391L10.9428 13.5007C11.021 13.4852 11.0899 13.4392 11.1343 13.3729C11.1787 13.3066 11.1949 13.2254 11.1794 13.1471C11.1639 13.0689 11.118 13 11.0517 12.9556C10.9854 12.9112 10.9042 12.895 10.8259 12.9105L9.45089 13.1827C9.39886 13.193 9.35049 13.2169 9.31068 13.252C9.27086 13.287 9.24103 13.332 9.22419 13.3823L8.75669 14.7784L6.92261 15.6577L6.25917 14.6681V11.9667C6.25917 11.8869 6.22748 11.8104 6.17108 11.754C6.11467 11.6976 6.03816 11.6659 5.95839 11.6659C5.87862 11.6659 5.80211 11.6976 5.74571 11.754C5.6893 11.8104 5.65761 11.8869 5.65761 11.9667V14.7597C5.65777 14.8194 5.67572 14.8778 5.70917 14.9272L6.47694 16.0726L5.76159 17.7226H4.06656V6.38764H8.70186V9.37586C8.70197 9.42747 8.71536 9.47819 8.74075 9.52313C8.76613 9.56807 8.80265 9.60572 8.8468 9.63246C8.89094 9.6592 8.94122 9.67414 8.99281 9.67582C9.04439 9.67751 9.09555 9.66589 9.14134 9.64209L11 8.67667L12.8587 9.64209C12.9045 9.66592 12.9557 9.67754 13.0074 9.67582C13.059 9.6741 13.1093 9.6591 13.1535 9.63228C13.1977 9.60546 13.2342 9.56771 13.2595 9.52268C13.2848 9.47764 13.2981 9.42684 13.2981 9.37517V6.38764H17.9334V8.71105L16.2523 8.89633C16.1889 8.90332 16.1293 8.93033 16.0822 8.97343C16.0351 9.01653 16.003 9.0735 15.9904 9.13609L15.8025 10.0699L14.6321 10.739C14.5635 10.7789 14.5134 10.8443 14.4929 10.9209C14.4723 10.9976 14.4828 11.0793 14.5222 11.1482C14.5615 11.2171 14.6265 11.2676 14.703 11.2888C14.7795 11.31 14.8612 11.3001 14.9304 11.2613L15.3847 11.0016L15.7328 12.6936C15.7496 12.7709 15.7963 12.8384 15.8627 12.8816C15.929 12.9247 16.0097 12.94 16.0872 12.924C16.1647 12.9081 16.2328 12.8622 16.2768 12.7964C16.3207 12.7306 16.3369 12.6501 16.3219 12.5724L15.9342 10.6874L16.2195 10.5243C16.2568 10.503 16.2891 10.474 16.3142 10.4391C16.3394 10.4043 16.3568 10.3645 16.3653 10.3224L16.5371 9.47022L17.934 9.31553V17.7213L6.41695 17.7219Z" fill="#0078D6"/>
</svg>
