<svg width="40" height="40" viewBox="0 0 40 40" fill="none" xmlns="http://www.w3.org/2000/svg">
<path d="M29.677 15.1309V7.37906C29.6757 6.23039 29.2187 5.12916 28.4064 4.31698C27.5942 3.50481 26.4928 3.04803 25.3442 3.04688H24.7798C23.6312 3.0482 22.5301 3.50505 21.7179 4.3172C20.9058 5.12936 20.4489 6.2305 20.4476 7.37906V7.70625H17.5186C17.3735 7.70625 17.2344 7.76387 17.1319 7.86643C17.0293 7.96899 16.9717 8.10808 16.9717 8.25313C16.9717 8.39817 17.0293 8.53726 17.1319 8.63982C17.2344 8.74238 17.3735 8.8 17.5186 8.8H21.2504V10.4922C21.2532 11.3814 21.5359 12.2471 22.0584 12.9665C22.581 13.6859 23.3169 14.2225 24.1617 14.5V14.8406H23.4773C23.3323 14.8406 23.1932 14.8982 23.0906 15.0008C22.988 15.1034 22.9304 15.2425 22.9304 15.3875V23.7697H19.897V11.2188C19.897 11.0737 19.8394 10.9346 19.7368 10.8321C19.6343 10.7295 19.4952 10.6719 19.3501 10.6719H6.25293C6.10789 10.6719 5.96879 10.7295 5.86623 10.8321C5.76367 10.9346 5.70605 11.0737 5.70605 11.2188V24.3156C5.70605 24.4607 5.76367 24.5998 5.86623 24.7023C5.96879 24.8049 6.10789 24.8625 6.25293 24.8625H7.90668C7.99943 25.514 8.32389 26.1103 8.82059 26.542C9.31729 26.9738 9.95295 27.212 10.6111 27.2131H14.1998V29.0169C14.1998 29.1619 14.2574 29.301 14.36 29.4036C14.4625 29.5061 14.6016 29.5637 14.7467 29.5637H17.9379C18.083 29.5637 18.2221 29.5061 18.3246 29.4036C18.4272 29.301 18.4848 29.1619 18.4848 29.0169V28.3325H22.9304V36.4062C22.9304 36.5513 22.988 36.6904 23.0906 36.7929C23.1932 36.8955 23.3323 36.9531 23.4773 36.9531H33.7479C33.893 36.9531 34.0321 36.8955 34.1346 36.7929C34.2372 36.6904 34.2948 36.5513 34.2948 36.4062V21.3894C34.2928 19.9902 33.8437 18.6282 33.0129 17.5024C32.1822 16.3765 31.0133 15.5456 29.677 15.1309ZM21.5414 7.37906C21.5424 6.52048 21.8839 5.69735 22.491 5.09024C23.0981 4.48313 23.9212 4.14162 24.7798 4.14062H25.3442C26.2029 4.14145 27.0262 4.48289 27.6334 5.09002C28.2407 5.69714 28.5822 6.52037 28.5832 7.37906V7.70625H21.5414V7.37906ZM24.8207 13.5441C24.1214 13.3948 23.4943 13.0106 23.0437 12.4553C22.5931 11.9 22.3463 11.2073 22.3442 10.4922V8.8H28.5832V14.8991C28.3051 14.8611 28.0249 14.8411 27.7442 14.8391H25.2554V14.0794C25.2554 13.9538 25.2122 13.8321 25.1331 13.7346C25.0539 13.6371 24.9436 13.5698 24.8207 13.5441ZM13.9339 11.7666V14.4475L13.1432 13.815C13.0463 13.7373 12.9258 13.695 12.8015 13.695C12.6773 13.695 12.5568 13.7373 12.4598 13.815L11.6692 14.4472V11.7666H13.9339ZM6.7998 11.7666H10.5754V15.5853C10.5755 15.6883 10.6046 15.7892 10.6594 15.8763C10.7143 15.9635 10.7926 16.0334 10.8855 16.078C10.9783 16.1226 11.0818 16.1401 11.1842 16.1285C11.2865 16.1168 11.3834 16.0765 11.4639 16.0122L12.8014 14.9422L14.1389 16.0122C14.2193 16.0765 14.3163 16.1168 14.4186 16.1285C14.5209 16.1401 14.6244 16.1226 14.7173 16.078C14.8101 16.0334 14.8884 15.9635 14.9433 15.8763C14.9981 15.7892 15.0273 15.6883 15.0273 15.5853V11.7666H18.8032V23.7697H6.7998V11.7666ZM10.6092 26.1206C10.2416 26.1197 9.8849 25.9953 9.59646 25.7673C9.30801 25.5394 9.10449 25.2212 9.01855 24.8638H14.1998V26.1206H10.6092ZM17.3904 28.4713H15.2936V24.8634H17.3901V28.4713H17.3904ZM18.4842 24.8634H23.4773C23.6223 24.8634 23.7614 24.8058 23.864 24.7033C23.9666 24.6007 24.0242 24.4616 24.0242 24.3166V18.3663C24.6919 18.4947 25.2942 18.8516 25.7275 19.3756C26.1609 19.8996 26.3984 20.5581 26.3992 21.2381V27.24H18.4836L18.4842 24.8634ZM26.9479 28.3322C27.093 28.3322 27.2321 28.2746 27.3346 28.172C27.4372 28.0695 27.4948 27.9304 27.4948 27.7853V21.2384C27.4932 20.2689 27.1412 19.3326 26.5038 18.6021C25.8664 17.8716 24.9864 17.3961 24.0261 17.2631V15.9328H27.7448C29.1915 15.9345 30.5784 16.5099 31.6013 17.5328C32.6243 18.5558 33.1997 19.9427 33.2014 21.3894V31.7734H24.0242V28.3337L26.9479 28.3322ZM33.2014 35.8578H24.0242V32.8656H33.2011L33.2014 35.8578Z" fill="#ED412C"/>
</svg>
