<svg width="70" height="70" viewBox="0 0 70 70" fill="none" xmlns="http://www.w3.org/2000/svg">
<rect x="0.5" y="0.5" width="69" height="69" rx="34.5" fill="white" stroke="#E6E6E6"/>
<path d="M56.9509 20.0887H51.1898V19.2765C51.1898 18.7111 50.9621 18.1688 50.557 17.769C50.1518 17.3692 49.6023 17.1445 49.0293 17.1445C48.4564 17.1445 47.9068 17.3692 47.5017 17.769C47.0965 18.1688 46.8689 18.7111 46.8689 19.2765V20.0887H23.8244V19.2765C23.8244 18.7111 23.5967 18.1688 23.1916 17.769C22.7864 17.3692 22.2369 17.1445 21.6639 17.1445C21.0909 17.1445 20.5414 17.3692 20.1363 17.769C19.7311 18.1688 19.5035 18.7111 19.5035 19.2765V20.0887H13.7424C13.5514 20.0887 13.3682 20.1636 13.2331 20.2969C13.0981 20.4301 13.0222 20.6109 13.0222 20.7994V52.1443C13.0222 52.3327 13.0981 52.5135 13.2331 52.6468C13.3682 52.7801 13.5514 52.8549 13.7424 52.8549H56.9509C57.1419 52.8549 57.3251 52.7801 57.4601 52.6468C57.5952 52.5135 57.671 52.3327 57.671 52.1443V20.7994C57.671 20.6109 57.5952 20.4301 57.4601 20.2969C57.3251 20.1636 57.1419 20.0887 56.9509 20.0887ZM48.3092 19.2765C48.3092 19.0881 48.3851 18.9073 48.5201 18.774C48.6552 18.6407 48.8383 18.5659 49.0293 18.5659C49.2203 18.5659 49.4035 18.6407 49.5386 18.774C49.6736 18.9073 49.7495 19.0881 49.7495 19.2765V22.3222C49.7495 22.5107 49.6736 22.6915 49.5386 22.8248C49.4035 22.958 49.2203 23.0329 49.0293 23.0329C48.8383 23.0329 48.6552 22.958 48.5201 22.8248C48.3851 22.6915 48.3092 22.5107 48.3092 22.3222V19.2765ZM21.6639 18.5659C21.8549 18.5661 22.0379 18.641 22.1729 18.7743C22.3079 18.9075 22.3838 19.0881 22.3841 19.2765V22.3222C22.3841 22.5107 22.3082 22.6915 22.1731 22.8248C22.0381 22.958 21.8549 23.0329 21.6639 23.0329C21.4729 23.0329 21.2898 22.958 21.1547 22.8248C21.0197 22.6915 20.9438 22.5107 20.9438 22.3222V20.959C20.97 20.8543 20.97 20.7449 20.9438 20.6402V19.2765C20.944 19.0881 21.0199 18.9075 21.1549 18.7743C21.29 18.641 21.473 18.5661 21.6639 18.5659ZM14.4625 21.5101H19.5035V22.3222C19.5035 22.8877 19.7311 23.43 20.1363 23.8298C20.5414 24.2296 21.0909 24.4542 21.6639 24.4542C22.2369 24.4542 22.7864 24.2296 23.1916 23.8298C23.5967 23.43 23.8244 22.8877 23.8244 22.3222V21.5101H46.8689V22.3222C46.8689 22.8877 47.0965 23.43 47.5017 23.8298C47.9068 24.2296 48.4564 24.4542 49.0293 24.4542C49.6023 24.4542 50.1518 24.2296 50.557 23.8298C50.9621 23.43 51.1898 22.8877 51.1898 22.3222V21.5101H56.2308V26.2687H14.4625V21.5101ZM14.4625 51.4336V27.69H56.2308V51.4352L14.4625 51.4336Z" fill="#ED412C"/>
<path d="M24.1018 30.2329H20.2443C20.0533 30.2329 19.8701 30.3078 19.7351 30.4411C19.6 30.5743 19.5242 30.7551 19.5242 30.9436V34.7507C19.5242 34.9392 19.6 35.12 19.7351 35.2532C19.8701 35.3865 20.0533 35.4614 20.2443 35.4614H24.1026C24.2936 35.4614 24.4768 35.3865 24.6118 35.2532C24.7469 35.12 24.8228 34.9392 24.8228 34.7507V30.9436C24.8228 30.8502 24.8041 30.7577 24.7679 30.6714C24.7316 30.5852 24.6785 30.5068 24.6116 30.4408C24.5446 30.3748 24.4651 30.3224 24.3776 30.2868C24.2902 30.2511 24.1964 30.2328 24.1018 30.2329ZM23.3817 34.0401H20.9636V31.6542H23.3817V34.0401Z" fill="#ED412C"/>
<path d="M32.8846 30.2329H29.0263C28.8353 30.2329 28.6521 30.3078 28.5171 30.4411C28.382 30.5743 28.3062 30.7551 28.3062 30.9436V34.7507C28.3062 34.9392 28.382 35.12 28.5171 35.2532C28.6521 35.3865 28.8353 35.4614 29.0263 35.4614H32.8846C33.0756 35.4614 33.2588 35.3865 33.3938 35.2532C33.5289 35.12 33.6048 34.9392 33.6048 34.7507V30.9436C33.6048 30.7551 33.5289 30.5743 33.3938 30.4411C33.2588 30.3078 33.0756 30.2329 32.8846 30.2329ZM32.1645 34.0401H29.7464V31.6542H32.1645V34.0401Z" fill="#ED412C"/>
<path d="M41.6671 30.2329H37.8088C37.6178 30.2329 37.4346 30.3078 37.2995 30.4411C37.1645 30.5743 37.0886 30.7551 37.0886 30.9436V34.7507C37.0886 34.9392 37.1645 35.12 37.2995 35.2532C37.4346 35.3865 37.6178 35.4614 37.8088 35.4614H41.6671C41.8581 35.4614 42.0412 35.3865 42.1763 35.2532C42.3114 35.12 42.3872 34.9392 42.3872 34.7507V30.9436C42.3872 30.8503 42.3686 30.7578 42.3324 30.6716C42.2962 30.5854 42.2432 30.5071 42.1763 30.4411C42.1094 30.3751 42.03 30.3227 41.9427 30.287C41.8553 30.2513 41.7617 30.2329 41.6671 30.2329ZM40.9469 34.0401H38.5289V31.6542H40.9469V34.0401Z" fill="#ED412C"/>
<path d="M50.449 30.2329H46.5915C46.4005 30.2329 46.2173 30.3078 46.0823 30.4411C45.9472 30.5743 45.8713 30.7551 45.8713 30.9436V34.7507C45.8713 34.9392 45.9472 35.12 46.0823 35.2532C46.2173 35.3865 46.4005 35.4614 46.5915 35.4614H50.449C50.64 35.4614 50.8231 35.3865 50.9582 35.2532C51.0932 35.12 51.1691 34.9392 51.1691 34.7507V30.9436C51.1691 30.7551 51.0932 30.5743 50.9582 30.4411C50.8231 30.3078 50.64 30.2329 50.449 30.2329ZM49.7288 34.0401H47.3116V31.6542H49.7297L49.7288 34.0401Z" fill="#ED412C"/>
<path d="M24.1018 36.8418H20.2443C20.0533 36.8418 19.8701 36.9167 19.7351 37.0499C19.6 37.1832 19.5242 37.364 19.5242 37.5525V41.3596C19.5242 41.5481 19.6 41.7288 19.7351 41.8621C19.8701 41.9954 20.0533 42.0703 20.2443 42.0703H24.1026C24.2936 42.0703 24.4768 41.9954 24.6118 41.8621C24.7469 41.7288 24.8228 41.5481 24.8228 41.3596V37.5525C24.8228 37.4591 24.8041 37.3666 24.7679 37.2803C24.7316 37.194 24.6785 37.1157 24.6116 37.0497C24.5446 36.9837 24.4651 36.9313 24.3776 36.8957C24.2902 36.86 24.1964 36.8417 24.1018 36.8418ZM23.3817 40.6489H20.9636V38.2631H23.3817V40.6489Z" fill="#ED412C"/>
<path d="M32.8846 36.8418H29.0263C28.8353 36.8418 28.6521 36.9167 28.5171 37.0499C28.382 37.1832 28.3062 37.364 28.3062 37.5525V41.3596C28.3062 41.5481 28.382 41.7288 28.5171 41.8621C28.6521 41.9954 28.8353 42.0703 29.0263 42.0703H32.8846C33.0756 42.0703 33.2588 41.9954 33.3938 41.8621C33.5289 41.7288 33.6048 41.5481 33.6048 41.3596V37.5525C33.6048 37.364 33.5289 37.1832 33.3938 37.0499C33.2588 36.9167 33.0756 36.8418 32.8846 36.8418ZM32.1645 40.6489H29.7464V38.2631H32.1645V40.6489Z" fill="#ED412C"/>
<path d="M41.6671 36.8418H37.8088C37.6178 36.8418 37.4346 36.9167 37.2995 37.0499C37.1645 37.1832 37.0886 37.364 37.0886 37.5525V41.3596C37.0886 41.5481 37.1645 41.7288 37.2995 41.8621C37.4346 41.9954 37.6178 42.0703 37.8088 42.0703H41.6671C41.8581 42.0703 42.0412 41.9954 42.1763 41.8621C42.3114 41.7288 42.3872 41.5481 42.3872 41.3596V37.5525C42.3872 37.4591 42.3686 37.3667 42.3324 37.2805C42.2962 37.1943 42.2432 37.1159 42.1763 37.0499C42.1094 36.984 42.03 36.9316 41.9427 36.8959C41.8553 36.8602 41.7617 36.8418 41.6671 36.8418ZM40.9469 40.6489H38.5289V38.2631H40.9469V40.6489Z" fill="#ED412C"/>
<path d="M50.449 36.8418H46.5915C46.4005 36.8418 46.2173 36.9167 46.0823 37.0499C45.9472 37.1832 45.8713 37.364 45.8713 37.5525V41.3596C45.8713 41.5481 45.9472 41.7288 46.0823 41.8621C46.2173 41.9954 46.4005 42.0703 46.5915 42.0703H50.449C50.64 42.0703 50.8231 41.9954 50.9582 41.8621C51.0932 41.7288 51.1691 41.5481 51.1691 41.3596V37.5525C51.1691 37.364 51.0932 37.1832 50.9582 37.0499C50.8231 36.9167 50.64 36.8418 50.449 36.8418ZM49.7288 40.6489H47.3116V38.2631H49.7297L49.7288 40.6489Z" fill="#ED412C"/>
<path d="M24.1018 43.4502H20.2443C20.0533 43.4502 19.8701 43.5251 19.7351 43.6583C19.6 43.7916 19.5242 43.9724 19.5242 44.1609V47.968C19.5242 48.1565 19.6 48.3372 19.7351 48.4705C19.8701 48.6038 20.0533 48.6787 20.2443 48.6787H24.1026C24.2936 48.6787 24.4768 48.6038 24.6118 48.4705C24.7469 48.3372 24.8228 48.1565 24.8228 47.968V44.1609C24.8228 44.0675 24.8041 43.975 24.7679 43.8887C24.7316 43.8024 24.6785 43.7241 24.6116 43.6581C24.5446 43.5921 24.4651 43.5397 24.3776 43.5041C24.2902 43.4684 24.1964 43.4501 24.1018 43.4502ZM23.3817 47.2573H20.9636V44.8715H23.3817V47.2573Z" fill="#ED412C"/>
<path d="M32.8846 43.4502H29.0263C28.8353 43.4502 28.6521 43.5251 28.5171 43.6583C28.382 43.7916 28.3062 43.9724 28.3062 44.1609V47.968C28.3062 48.1565 28.382 48.3372 28.5171 48.4705C28.6521 48.6038 28.8353 48.6787 29.0263 48.6787H32.8846C33.0756 48.6787 33.2588 48.6038 33.3938 48.4705C33.5289 48.3372 33.6048 48.1565 33.6048 47.968V44.1609C33.6048 43.9724 33.5289 43.7916 33.3938 43.6583C33.2588 43.5251 33.0756 43.4502 32.8846 43.4502ZM32.1645 47.2573H29.7464V44.8715H32.1645V47.2573Z" fill="#ED412C"/>
<path d="M41.6671 43.4502H37.8088C37.6178 43.4502 37.4346 43.5251 37.2995 43.6583C37.1645 43.7916 37.0886 43.9724 37.0886 44.1609V47.968C37.0886 48.1565 37.1645 48.3372 37.2995 48.4705C37.4346 48.6038 37.6178 48.6787 37.8088 48.6787H41.6671C41.8581 48.6787 42.0412 48.6038 42.1763 48.4705C42.3114 48.3372 42.3872 48.1565 42.3872 47.968V44.1609C42.3872 44.0675 42.3686 43.9751 42.3324 43.8889C42.2962 43.8027 42.2432 43.7243 42.1763 43.6583C42.1094 43.5924 42.03 43.54 41.9427 43.5043C41.8553 43.4686 41.7617 43.4502 41.6671 43.4502ZM40.9469 47.2573H38.5289V44.8715H40.9469V47.2573Z" fill="#ED412C"/>
<path d="M50.449 43.4502H46.5915C46.4005 43.4502 46.2173 43.5251 46.0823 43.6583C45.9472 43.7916 45.8713 43.9724 45.8713 44.1609V47.968C45.8713 48.1565 45.9472 48.3372 46.0823 48.4705C46.2173 48.6038 46.4005 48.6787 46.5915 48.6787H50.449C50.64 48.6787 50.8231 48.6038 50.9582 48.4705C51.0932 48.3372 51.1691 48.1565 51.1691 47.968V44.1609C51.1691 43.9724 51.0932 43.7916 50.9582 43.6583C50.8231 43.5251 50.64 43.4502 50.449 43.4502ZM49.7288 47.2573H47.3116V44.8715H49.7297L49.7288 47.2573Z" fill="#ED412C"/>
</svg>
