<svg width="70" height="70" viewBox="0 0 70 70" fill="none" xmlns="http://www.w3.org/2000/svg">
<rect x="0.5" y="0.5" width="69" height="69" rx="34.5" fill="white" stroke="#E6E6E6"/>
<path d="M48.6745 20.5732H15.7593C15.5708 20.5732 15.39 20.6481 15.2567 20.7814C15.1235 20.9147 15.0486 21.0954 15.0486 21.2839V54.2C15.0486 54.3884 15.1235 54.5692 15.2567 54.7025C15.39 54.8358 15.5708 54.9106 15.7593 54.9106H48.6745C48.863 54.9106 49.0437 54.8358 49.177 54.7025C49.3103 54.5692 49.3852 54.3884 49.3852 54.2V21.2839C49.3852 21.0954 49.3103 20.9147 49.177 20.7814C49.0437 20.6481 48.863 20.5732 48.6745 20.5732ZM35.7261 21.9946V30.7772L32.6609 28.3252C32.5349 28.2243 32.3783 28.1693 32.2169 28.1693C32.0554 28.1693 31.8988 28.2243 31.7728 28.3252L28.7076 30.7772V21.9946H35.7261ZM47.9626 53.4881H16.4699V21.9946H27.2863V32.2554C27.2863 32.3892 27.3242 32.5203 27.3954 32.6336C27.4667 32.7469 27.5685 32.8377 27.6892 32.8957C27.8098 32.9536 27.9443 32.9763 28.0773 32.9612C28.2103 32.9461 28.3363 32.8937 28.4408 32.8101L32.2175 29.79L35.9942 32.8105C36.0987 32.8941 36.2247 32.9465 36.3577 32.9616C36.4906 32.9768 36.6252 32.954 36.7458 32.8961C36.8664 32.8381 36.9682 32.7473 37.0395 32.634C37.1108 32.5207 37.1486 32.3896 37.1487 32.2558V21.9946H47.9626V53.4881Z" fill="#ED412C"/>
<path d="M49.0858 14.3879L44.4104 11.0636C44.2568 10.9545 44.0661 10.9108 43.8804 10.9422C43.6946 10.9736 43.5289 11.0776 43.4197 11.2312C43.3106 11.3847 43.2669 11.5754 43.2983 11.7612C43.3297 11.947 43.4336 12.1127 43.5872 12.2218L46.449 14.2568H17.9849L20.8467 12.2218C20.9244 12.1684 20.9908 12.1001 21.0419 12.0208C21.0929 11.9416 21.1277 11.8529 21.1442 11.76C21.1607 11.6672 21.1585 11.572 21.1378 11.48C21.1171 11.388 21.0783 11.301 21.0236 11.2241C20.969 11.1473 20.8996 11.0821 20.8194 11.0323C20.7393 10.9825 20.6501 10.9492 20.557 10.9343C20.4639 10.9193 20.3687 10.9231 20.2771 10.9453C20.1854 10.9675 20.0991 11.0077 20.0231 11.0636L15.3474 14.3879C15.2549 14.4536 15.1795 14.5404 15.1275 14.6412C15.0755 14.7419 15.0483 14.8536 15.0483 14.967C15.0483 15.0804 15.0755 15.1921 15.1275 15.2929C15.1795 15.3936 15.2549 15.4805 15.3474 15.5461L20.0231 18.87C20.0991 18.9259 20.1854 18.9662 20.2771 18.9884C20.3687 19.0106 20.4639 19.0143 20.557 18.9994C20.6501 18.9844 20.7393 18.9511 20.8194 18.9014C20.8996 18.8516 20.969 18.7864 21.0236 18.7095C21.0783 18.6327 21.1171 18.5457 21.1378 18.4537C21.1585 18.3617 21.1607 18.2665 21.1442 18.1736C21.1277 18.0807 21.0929 17.9921 21.0419 17.9128C20.9908 17.8335 20.9244 17.7652 20.8467 17.7118L17.9845 15.6777H46.4486L43.5864 17.713C43.5072 17.7658 43.4393 17.834 43.3869 17.9135C43.3345 17.993 43.2986 18.0822 43.2814 18.1759C43.2641 18.2695 43.2658 18.3657 43.2865 18.4586C43.3071 18.5516 43.3462 18.6394 43.4015 18.717C43.4567 18.7945 43.527 18.8602 43.6081 18.9101C43.6893 18.9599 43.7796 18.993 43.8737 19.0072C43.9679 19.0215 44.0639 19.0167 44.1562 18.9931C44.2484 18.9696 44.335 18.9277 44.4108 18.87L49.0866 15.5453C49.179 15.4797 49.2544 15.3928 49.3064 15.2921C49.3584 15.1913 49.3856 15.0796 49.3856 14.9662C49.3856 14.8528 49.3584 14.7411 49.3064 14.6403C49.2544 14.5396 49.179 14.4528 49.0866 14.3871L49.0858 14.3879Z" fill="#ED412C"/>
<path d="M58.8113 48.9449C58.6578 48.8356 58.4672 48.7919 58.2813 48.8232C58.0955 48.8545 57.9298 48.9583 57.8205 49.1118L55.7851 51.9735V23.5095L57.8205 26.3717C57.9297 26.5252 58.0955 26.6291 58.2814 26.6605C58.4673 26.6918 58.658 26.648 58.8115 26.5388C58.9651 26.4295 59.069 26.2637 59.1004 26.0778C59.1317 25.892 59.0879 25.7013 58.9787 25.5477L55.6531 20.8719C55.5842 20.7843 55.4962 20.7135 55.3959 20.6648C55.2956 20.6161 55.1855 20.5908 55.074 20.5908C54.9625 20.5908 54.8525 20.6161 54.7522 20.6648C54.6519 20.7135 54.5639 20.7843 54.495 20.8719L51.1707 25.5481C51.1166 25.6241 51.0781 25.7101 51.0572 25.801C51.0364 25.892 51.0337 25.9861 51.0492 26.0781C51.0648 26.1701 51.0983 26.2581 51.1479 26.3372C51.1975 26.4162 51.2621 26.4847 51.3382 26.5388C51.4142 26.5928 51.5002 26.6314 51.5911 26.6522C51.6821 26.673 51.7762 26.6757 51.8682 26.6602C51.9602 26.6446 52.0482 26.6111 52.1273 26.5615C52.2063 26.512 52.2748 26.4473 52.3288 26.3712L54.3638 23.5095V51.9735L52.3288 49.1122C52.2747 49.0361 52.2062 48.9715 52.1271 48.9219C52.048 48.8724 51.9599 48.8389 51.8679 48.8234C51.7759 48.8078 51.6817 48.8106 51.5907 48.8315C51.4998 48.8524 51.4138 48.891 51.3378 48.9451C51.2617 48.9992 51.1971 49.0677 51.1475 49.1468C51.098 49.2259 51.0645 49.314 51.049 49.406C51.0334 49.498 51.0362 49.5922 51.0571 49.6832C51.078 49.7741 51.1166 49.8601 51.1707 49.9361L54.4954 54.6115C54.561 54.704 54.6478 54.7794 54.7486 54.8314C54.8493 54.8834 54.9611 54.9105 55.0745 54.9105C55.1878 54.9105 55.2996 54.8834 55.4003 54.8314C55.5011 54.7794 55.5879 54.704 55.6535 54.6115L58.9787 49.9361C59.0328 49.8601 59.0714 49.7741 59.0923 49.6831C59.1132 49.5921 59.1159 49.4979 59.1004 49.4058C59.0848 49.3138 59.0513 49.2257 59.0017 49.1466C58.9521 49.0675 58.8874 48.999 58.8113 48.9449Z" fill="#ED412C"/>
</svg>
