<svg width="41" height="40" viewBox="0 0 41 40" fill="none" xmlns="http://www.w3.org/2000/svg">
<path d="M36.9062 30.4031H34.2V9.24995C34.1995 9.11834 34.1512 8.99139 34.0641 8.89276C34.0622 8.89026 34.0616 8.88651 34.0597 8.88432L30.6078 5.04682C30.5566 4.98982 30.4939 4.94422 30.424 4.91299C30.354 4.88177 30.2782 4.86561 30.2016 4.86557H10.7988C10.7221 4.86561 10.6463 4.88177 10.5764 4.91299C10.5064 4.94422 10.4437 4.98982 10.3925 5.04682L6.94063 8.88276C6.93719 8.88682 6.9375 8.88963 6.93438 8.89338C6.84838 8.9917 6.80078 9.11776 6.80031 9.24838V30.4031H4.09375C3.94871 30.4031 3.80961 30.4607 3.70705 30.5632C3.60449 30.6658 3.54687 30.8049 3.54688 30.9499C3.54687 31.095 3.60449 31.2341 3.70705 31.3366C3.80961 31.4392 3.94871 31.4968 4.09375 31.4968H16.3194C17.4848 32.8011 18.7782 33.9852 20.18 35.0312C20.273 35.0979 20.3845 35.1338 20.4989 35.1338C20.6133 35.1338 20.7249 35.0979 20.8178 35.0312C22.2292 33.989 23.5298 32.8046 24.6994 31.4968H36.9062C37.0513 31.4968 37.1904 31.4392 37.2929 31.3366C37.3955 31.2341 37.4531 31.095 37.4531 30.9499C37.4531 30.8049 37.3955 30.6658 37.2929 30.5632C37.1904 30.4607 37.0513 30.4031 36.9062 30.4031ZM32.4253 8.70151H24.4516L22.9094 5.95932H29.9578L32.4253 8.70151ZM17.4153 9.79526H23.5847V14.3265L20.7522 12.8543C20.6743 12.8138 20.5878 12.7927 20.5 12.7927C20.4122 12.7927 20.3257 12.8138 20.2478 12.8543L17.4156 14.3265L17.4153 9.79526ZM21.6544 5.95932L23.1966 8.70151H17.8038L19.3459 5.95932H21.6544ZM11.0422 5.95932H18.0909L16.5487 8.70151H8.57469L11.0422 5.95932ZM20.5 33.9021C19.1875 32.8787 14.2594 28.7834 14.2594 24.9249C14.2594 23.2698 14.9169 21.6825 16.0872 20.5122C17.2576 19.3418 18.8449 18.6843 20.5 18.6843C22.1551 18.6843 23.7424 19.3418 24.9128 20.5122C26.0831 21.6825 26.7406 23.2698 26.7406 24.9249C26.7406 28.8253 21.8172 32.8868 20.5 33.9021ZM27.8344 24.9249C27.8344 22.9797 27.0616 21.1142 25.6862 19.7388C24.3107 18.3633 22.4452 17.5906 20.5 17.5906C18.5548 17.5906 16.6893 18.3633 15.3138 19.7388C13.9384 21.1142 13.1656 22.9797 13.1656 24.9249C13.1656 26.8521 14.1703 28.7659 15.4191 30.4031H7.89406V9.79526H16.3216V15.2284C16.3216 15.3223 16.3457 15.4147 16.3918 15.4966C16.4379 15.5785 16.5043 15.6471 16.5845 15.6959C16.6648 15.7446 16.7564 15.7719 16.8503 15.775C16.9441 15.7781 17.0373 15.757 17.1206 15.7137L20.5 13.9571L23.8794 15.7137C23.9627 15.757 24.0559 15.7781 24.1497 15.775C24.2436 15.7719 24.3352 15.7446 24.4155 15.6959C24.4957 15.6471 24.5621 15.5785 24.6082 15.4966C24.6543 15.4147 24.6784 15.3223 24.6784 15.2284V9.79526H33.1062V30.4031H25.5988C26.8391 28.7728 27.8344 26.8628 27.8344 24.9249Z" fill="#ED412C"/>
<path d="M20.5004 21.7869C19.8798 21.7869 19.273 21.9709 18.757 22.3157C18.2409 22.6606 17.8387 23.1507 17.6012 23.7241C17.3637 24.2975 17.3015 24.9285 17.4226 25.5372C17.5437 26.1459 17.8426 26.7051 18.2814 27.144C18.7203 27.5829 19.2795 27.8817 19.8882 28.0028C20.4969 28.1239 21.1279 28.0618 21.7013 27.8242C22.2748 27.5867 22.7649 27.1845 23.1097 26.6684C23.4545 26.1524 23.6386 25.5457 23.6386 24.925C23.6376 24.093 23.3067 23.2953 22.7184 22.707C22.1301 22.1187 21.3324 21.7878 20.5004 21.7869ZM20.5004 26.9687C20.0961 26.9687 19.7008 26.8488 19.3646 26.6242C19.0284 26.3996 18.7664 26.0803 18.6117 25.7067C18.4569 25.3332 18.4165 24.9221 18.4953 24.5255C18.5742 24.129 18.7689 23.7647 19.0548 23.4788C19.3408 23.1929 19.705 22.9982 20.1016 22.9193C20.4982 22.8404 20.9092 22.8809 21.2828 23.0356C21.6563 23.1903 21.9756 23.4524 22.2003 23.7886C22.4249 24.1248 22.5448 24.52 22.5448 24.9244C22.5442 25.4664 22.3287 25.986 21.9454 26.3693C21.5621 26.7526 21.0425 26.9682 20.5004 26.9687Z" fill="#ED412C"/>
</svg>
