<svg width="30" height="30" viewBox="0 0 30 30" fill="none" xmlns="http://www.w3.org/2000/svg">
<path d="M27.3047 17.0035H23.1975V3.44275C23.1975 3.33397 23.1543 3.22964 23.0774 3.15272C23.0004 3.07581 22.8961 3.03259 22.7873 3.03259H2.69531C2.58653 3.03259 2.48221 3.07581 2.40529 3.15272C2.32837 3.22964 2.28516 3.33397 2.28516 3.44275V23.5348C2.28516 23.6436 2.32837 23.7479 2.40529 23.8248C2.48221 23.9017 2.58653 23.9449 2.69531 23.9449H19.1142C20.5191 26.7141 22.6172 26.9531 22.7498 26.9658C22.7623 26.9658 22.7747 26.9674 22.7871 26.9674C22.7995 26.9674 22.812 26.9674 22.8244 26.9658C23.0241 26.9475 27.7146 26.4157 27.7146 17.4136C27.7146 17.3049 27.6714 17.2006 27.5946 17.1237C27.5177 17.0468 27.4134 17.0035 27.3047 17.0035V17.0035ZM14.9062 3.85291V9.28666L12.9968 7.759C12.9241 7.70075 12.8337 7.669 12.7405 7.669C12.6473 7.669 12.5569 7.70075 12.4842 7.759L10.5748 9.28666V3.85291H14.9062ZM3.10547 23.1246V3.85291H9.75539V10.1402C9.75542 10.2175 9.77726 10.2932 9.8184 10.3585C9.85953 10.4239 9.9183 10.4763 9.98792 10.5098C10.0575 10.5432 10.1352 10.5563 10.2119 10.5476C10.2887 10.5389 10.3614 10.5086 10.4217 10.4604L12.742 8.60463L15.0623 10.4604C15.1227 10.508 15.1952 10.5377 15.2716 10.5461C15.348 10.5545 15.4253 10.5413 15.4945 10.5079C15.5637 10.4745 15.6222 10.4224 15.6632 10.3573C15.7043 10.2923 15.7262 10.2171 15.7266 10.1402V3.85291H22.3772V17.0035H18.2698C18.2158 17.0034 18.1624 17.014 18.1126 17.0347C18.0628 17.0553 18.0175 17.0855 17.9794 17.1237C17.9413 17.1618 17.9111 17.2071 17.8905 17.2569C17.8699 17.3068 17.8593 17.3602 17.8594 17.4141C17.8594 19.9153 18.2222 21.761 18.75 23.1251L3.10547 23.1246ZM22.7878 26.1438C22.4991 26.1 20.8952 25.755 19.7794 23.4469C19.7667 23.3902 19.742 23.3369 19.707 23.2906C19.1484 22.0653 18.7252 20.3203 18.6834 17.8238H26.8913C26.7656 25.3139 23.2202 26.0787 22.7878 26.1438V26.1438Z" fill="#0078D6"/>
<path d="M21.2395 21.4033C21.1539 21.3386 21.0462 21.31 20.9397 21.3237C20.8332 21.3375 20.7363 21.3925 20.6699 21.4769C20.6034 21.5613 20.5728 21.6684 20.5845 21.7751C20.5961 21.8819 20.6492 21.9798 20.7323 22.0479L22.1198 23.1393C22.2014 23.2033 22.304 23.234 22.4073 23.2253C22.5105 23.2166 22.6066 23.1691 22.6763 23.0925L25.3341 20.1813C25.4041 20.1005 25.4399 19.9955 25.4336 19.8887C25.4274 19.7819 25.3797 19.6818 25.3007 19.6097C25.2217 19.5376 25.1177 19.4992 25.0108 19.5027C24.9039 19.5062 24.8026 19.5513 24.7284 19.6284L22.3275 22.2593L21.2395 21.4033Z" fill="#0078D6"/>
</svg>
