<svg width="40" height="40" viewBox="0 0 40 40" fill="none" xmlns="http://www.w3.org/2000/svg">
<path d="M8.5 24.1631H19.4009C19.546 24.1631 19.6851 24.1055 19.7876 24.0029C19.8902 23.9004 19.9478 23.7613 19.9478 23.6162C19.9478 23.4712 19.8902 23.3321 19.7876 23.2295C19.6851 23.127 19.546 23.0694 19.4009 23.0694H8.5C8.35496 23.0694 8.21586 23.127 8.1133 23.2295C8.01074 23.3321 7.95313 23.4712 7.95312 23.6162C7.95313 23.7613 8.01074 23.9004 8.1133 24.0029C8.21586 24.1055 8.35496 24.1631 8.5 24.1631Z" fill="#ED412C"/>
<path d="M8.5 27.0703H16.8169C16.9619 27.0703 17.101 27.0127 17.2036 26.9101C17.3061 26.8076 17.3638 26.6685 17.3638 26.5234C17.3638 26.3784 17.3061 26.2393 17.2036 26.1367C17.101 26.0342 16.9619 25.9766 16.8169 25.9766H8.5C8.35496 25.9766 8.21586 26.0342 8.1133 26.1367C8.01074 26.2393 7.95313 26.3784 7.95312 26.5234C7.95313 26.6685 8.01074 26.8076 8.1133 26.9101C8.21586 27.0127 8.35496 27.0703 8.5 27.0703Z" fill="#ED412C"/>
<path d="M20.0781 28.8838H8.5C8.35496 28.8838 8.21586 28.9414 8.1133 29.0439C8.01074 29.1465 7.95313 29.2856 7.95312 29.4306C7.95313 29.5757 8.01074 29.7148 8.1133 29.8173C8.21586 29.9199 8.35496 29.9775 8.5 29.9775H20.0781C20.2232 29.9775 20.3623 29.9199 20.4648 29.8173C20.5674 29.7148 20.625 29.5757 20.625 29.4306C20.625 29.2856 20.5674 29.1465 20.4648 29.0439C20.3623 28.9414 20.2232 28.8838 20.0781 28.8838Z" fill="#ED412C"/>
<path d="M16.8169 31.7913H8.5C8.35496 31.7913 8.21586 31.8489 8.1133 31.9515C8.01074 32.054 7.95313 32.1931 7.95312 32.3382C7.95313 32.4832 8.01074 32.6223 8.1133 32.7249C8.21586 32.8274 8.35496 32.885 8.5 32.885H16.8169C16.9619 32.885 17.101 32.8274 17.2036 32.7249C17.3061 32.6223 17.3638 32.4832 17.3638 32.3382C17.3638 32.1931 17.3061 32.054 17.2036 31.9515C17.101 31.8489 16.9619 31.7913 16.8169 31.7913Z" fill="#ED412C"/>
<path d="M20.4922 6.34372H8.30469C8.15965 6.34372 8.02055 6.40134 7.91799 6.5039C7.81543 6.60645 7.75781 6.74555 7.75781 6.89059V19.0781C7.75781 19.2231 7.81543 19.3622 7.91799 19.4648C8.02055 19.5674 8.15965 19.625 8.30469 19.625H20.4922C20.6372 19.625 20.7763 19.5674 20.8789 19.4648C20.9814 19.3622 21.0391 19.2231 21.0391 19.0781V6.89059C21.0391 6.74555 20.9814 6.60645 20.8789 6.5039C20.7763 6.40134 20.6372 6.34372 20.4922 6.34372ZM15.4141 7.43747V9.81559L14.74 9.27622C14.6431 9.19863 14.5226 9.15635 14.3984 9.15635C14.2743 9.15635 14.1538 9.19863 14.0569 9.27622L13.3828 9.81559V7.43747H15.4141ZM19.9453 18.5312H8.85156V7.43747H12.2891V10.9531C12.289 11.0561 12.3181 11.157 12.3729 11.2442C12.4278 11.3315 12.5061 11.4014 12.599 11.4461C12.6918 11.4907 12.7954 11.5082 12.8977 11.4966C13.0001 11.4849 13.097 11.4446 13.1775 11.3803L14.3984 10.4037L15.6194 11.3803C15.6998 11.4446 15.7968 11.4849 15.8992 11.4966C16.0015 11.5082 16.1051 11.4907 16.1979 11.4461C16.2908 11.4014 16.3691 11.3315 16.4239 11.2442C16.4788 11.157 16.5078 11.0561 16.5078 10.9531V7.43747H19.9453V18.5312Z" fill="#ED412C"/>
<path d="M35.4161 21.5112C35.4161 21.3662 35.3585 21.2271 35.256 21.1246C35.1534 21.022 35.0143 20.9644 34.8693 20.9644H29.0505V7.76125C29.0501 7.74515 29.0476 7.72918 29.043 7.71375C29.0337 7.58633 28.9795 7.46633 28.8902 7.375L24.7224 3.20719C24.6293 3.11615 24.5064 3.06178 24.3764 3.05406C24.3632 3.04995 24.3494 3.04754 24.3355 3.04688H5.12988C4.98484 3.04688 4.84574 3.10449 4.74318 3.20705C4.64063 3.30961 4.58301 3.44871 4.58301 3.59375V36.4062C4.58301 36.5513 4.64063 36.6904 4.74318 36.7929C4.84574 36.8955 4.98484 36.9531 5.12988 36.9531H28.5049C28.6499 36.9531 28.789 36.8955 28.8916 36.7929C28.9941 36.6904 29.0518 36.5513 29.0518 36.4062V34.8438C30.6358 34.4341 35.4161 32.3006 35.4161 21.5112ZM24.8827 4.91406L27.1833 7.21469H24.8827V4.91406ZM5.67676 35.8594V4.14062H23.7889V7.76125C23.7889 7.90629 23.8466 8.04539 23.9491 8.14795C24.0517 8.25051 24.1908 8.30813 24.3358 8.30813H27.9568V20.9644H22.1377C21.9927 20.9644 21.8536 21.022 21.751 21.1246C21.6484 21.2271 21.5908 21.3662 21.5908 21.5112C21.5908 32.3006 26.3721 34.4344 27.9568 34.8453V35.8594H5.67676ZM28.5043 33.8453C27.8921 33.7544 22.8564 32.6797 22.6889 22.0581H34.3183C34.1505 32.6919 29.1033 33.7569 28.5043 33.8453Z" fill="#ED412C"/>
<path d="M32.0352 24.6197C31.9281 24.522 31.7865 24.4708 31.6417 24.4774C31.4968 24.4841 31.3605 24.548 31.2627 24.6551L27.8599 28.3822L26.304 27.1582C26.19 27.0685 26.045 27.0278 25.901 27.045C25.757 27.0622 25.6257 27.1359 25.536 27.2499C25.4463 27.3639 25.4056 27.5089 25.4228 27.6529C25.44 27.7969 25.5137 27.9282 25.6277 28.0179L27.583 29.556C27.6917 29.6412 27.8286 29.6822 27.9663 29.6706C28.1039 29.659 28.232 29.5957 28.3249 29.4935L32.0699 25.391C32.1674 25.284 32.2185 25.1428 32.212 24.9982C32.2055 24.8536 32.1419 24.7175 32.0352 24.6197Z" fill="#ED412C"/>
</svg>
