<svg width="22" height="22" viewBox="0 0 22 22" fill="none" xmlns="http://www.w3.org/2000/svg">
<path d="M18.2459 3.26562H3.58223C3.49826 3.26562 3.41773 3.29898 3.35836 3.35835C3.29898 3.41773 3.26562 3.49825 3.26562 3.58222V18.2459C3.26562 18.3299 3.29898 18.4104 3.35836 18.4698C3.41773 18.5291 3.49826 18.5625 3.58223 18.5625H18.2459C18.3299 18.5625 18.4104 18.5291 18.4698 18.4698C18.5291 18.4104 18.5625 18.3299 18.5625 18.2459V3.58222C18.5625 3.49825 18.5291 3.41773 18.4698 3.35835C18.4104 3.29898 18.3299 3.26562 18.2459 3.26562ZM17.9288 17.9288H3.89883V3.89881H8.71749H13.1112H17.9288V17.9288Z" fill="#0078D6"/>
<path d="M10.4587 12.9811V12.5461C10.4509 12.0693 10.5519 11.597 10.754 11.165C10.956 10.733 11.2538 10.3528 11.6247 10.053C11.784 9.93132 11.9125 9.77382 11.9996 9.59327C12.0868 9.41272 12.1303 9.21419 12.1265 9.01374C12.1158 8.68072 11.9787 8.36426 11.7431 8.12864C11.5076 7.89302 11.1911 7.75591 10.8581 7.74516C10.6872 7.74057 10.5171 7.77111 10.3585 7.8349C10.1998 7.8987 10.0559 7.99438 9.93575 8.11602C9.81387 8.2354 9.71714 8.37798 9.65127 8.53535C9.5854 8.69272 9.55173 8.86168 9.55223 9.03228C9.55223 9.13353 9.512 9.23064 9.44041 9.30224C9.36881 9.37383 9.27171 9.41405 9.17045 9.41405C9.0692 9.41405 8.9721 9.37383 8.9005 9.30224C8.8289 9.23064 8.78868 9.13353 8.78868 9.03228C8.78868 8.48841 9.00473 7.96681 9.38931 7.58224C9.77388 7.19767 10.2955 6.98161 10.8393 6.98161H10.8688C11.4015 6.99254 11.9094 7.20905 12.2862 7.58585C12.6629 7.96264 12.8794 8.47053 12.8902 9.00327C12.896 9.3226 12.8266 9.63881 12.6875 9.92632C12.5484 10.2138 12.3436 10.4646 12.0896 10.6582C11.8112 10.8864 11.5883 11.175 11.4379 11.5021C11.2875 11.8292 11.2136 12.1862 11.2216 12.5461V12.9816C11.2216 12.9816 11.2216 13.3629 10.8401 13.3629C10.4587 13.3629 10.4587 12.9811 10.4587 12.9811Z" fill="#0078D6"/>
<circle cx="10.8404" cy="14.4536" r="0.436312" fill="#0078D6"/>
</svg>
