<svg width="60" height="60" viewBox="0 0 60 60" fill="none" xmlns="http://www.w3.org/2000/svg">
<circle opacity="0.1" cx="30" cy="30" r="30" fill="#ED412C"/>
<path d="M37.5 25C37.5 23.0109 36.7098 21.1032 35.3033 19.6967C33.8968 18.2902 31.9891 17.5 30 17.5C28.0109 17.5 26.1032 18.2902 24.6967 19.6967C23.2902 21.1032 22.5 23.0109 22.5 25C22.5 33.75 18.75 36.25 18.75 36.25H41.25C41.25 36.25 37.5 33.75 37.5 25Z" stroke="#ED412C" stroke-width="3" stroke-linecap="round" stroke-linejoin="round"/>
<path d="M32.1624 41.25C31.9426 41.6288 31.6272 41.9433 31.2477 42.1619C30.8682 42.3805 30.4379 42.4956 29.9999 42.4956C29.5619 42.4956 29.1316 42.3805 28.7521 42.1619C28.3726 41.9433 28.0572 41.6288 27.8374 41.25" stroke="#ED412C" stroke-width="3" stroke-linecap="round" stroke-linejoin="round"/>
</svg>
