<svg width="40" height="40" viewBox="0 0 40 40" fill="none" xmlns="http://www.w3.org/2000/svg">
<path d="M36.4062 8.52563H32.0312V7.90063C32.0312 7.46551 31.8584 7.04821 31.5507 6.74054C31.243 6.43286 30.8257 6.26001 30.3906 6.26001C29.9555 6.26001 29.5382 6.43286 29.2305 6.74054C28.9229 7.04821 28.75 7.46551 28.75 7.90063V8.52563H11.25V7.90063C11.25 7.46551 11.0771 7.04821 10.7695 6.74054C10.4618 6.43286 10.0445 6.26001 9.60938 6.26001C9.17425 6.26001 8.75695 6.43286 8.44928 6.74054C8.1416 7.04821 7.96875 7.46551 7.96875 7.90063V8.52563H3.59375C3.44871 8.52563 3.30961 8.58325 3.20705 8.68581C3.10449 8.78837 3.04687 8.92747 3.04688 9.07251V33.1931C3.04688 33.3382 3.10449 33.4773 3.20705 33.5798C3.30961 33.6824 3.44871 33.74 3.59375 33.74H36.4062C36.5513 33.74 36.6904 33.6824 36.7929 33.5798C36.8955 33.4773 36.9531 33.3382 36.9531 33.1931V9.07251C36.9531 8.92747 36.8955 8.78837 36.7929 8.68581C36.6904 8.58325 36.5513 8.52563 36.4062 8.52563ZM29.8438 7.90063C29.8438 7.75559 29.9014 7.61649 30.0039 7.51394C30.1065 7.41138 30.2456 7.35376 30.3906 7.35376C30.5357 7.35376 30.6748 7.41138 30.7773 7.51394C30.8799 7.61649 30.9375 7.75559 30.9375 7.90063V10.2444C30.9375 10.3894 30.8799 10.5285 30.7773 10.6311C30.6748 10.7336 30.5357 10.7913 30.3906 10.7913C30.2456 10.7913 30.1065 10.7336 30.0039 10.6311C29.9014 10.5285 29.8438 10.3894 29.8438 10.2444V7.90063ZM9.60938 7.35376C9.75436 7.35393 9.89337 7.4116 9.99589 7.51412C10.0984 7.61664 10.1561 7.75565 10.1562 7.90063V10.2444C10.1562 10.3894 10.0986 10.5285 9.99607 10.6311C9.89352 10.7336 9.75442 10.7913 9.60938 10.7913C9.46433 10.7913 9.32523 10.7336 9.22268 10.6311C9.12012 10.5285 9.0625 10.3894 9.0625 10.2444V9.19532C9.08243 9.11477 9.08243 9.03057 9.0625 8.95001V7.90063C9.06267 7.75565 9.12034 7.61664 9.22286 7.51412C9.32538 7.4116 9.46439 7.35393 9.60938 7.35376ZM4.14062 9.61938H7.96875V10.2444C7.96875 10.6795 8.1416 11.0968 8.44928 11.4045C8.75695 11.7122 9.17425 11.885 9.60938 11.885C10.0445 11.885 10.4618 11.7122 10.7695 11.4045C11.0771 11.0968 11.25 10.6795 11.25 10.2444V9.61938H28.75V10.2444C28.75 10.6795 28.9229 11.0968 29.2305 11.4045C29.5382 11.7122 29.9555 11.885 30.3906 11.885C30.8257 11.885 31.243 11.7122 31.5507 11.4045C31.8584 11.0968 32.0312 10.6795 32.0312 10.2444V9.61938H35.8594V13.2813H4.14062V9.61938ZM4.14062 32.6463V14.375H35.8594V32.6475L4.14062 32.6463Z" fill="#ED412C"/>
<path d="M11.4606 16.3319H8.53125C8.38621 16.3319 8.24711 16.3895 8.14455 16.4921C8.04199 16.5946 7.98438 16.7337 7.98438 16.8788V19.8085C7.98438 19.9535 8.04199 20.0926 8.14455 20.1952C8.24711 20.2977 8.38621 20.3553 8.53125 20.3553H11.4613C11.6063 20.3553 11.7454 20.2977 11.8479 20.1952C11.9505 20.0926 12.0081 19.9535 12.0081 19.8085V16.8788C12.0081 16.8069 11.994 16.7357 11.9664 16.6694C11.9389 16.603 11.8986 16.5426 11.8477 16.4919C11.7969 16.4411 11.7365 16.4008 11.6701 16.3734C11.6037 16.3459 11.5325 16.3318 11.4606 16.3319ZM10.9138 19.2616H9.0775V17.4257H10.9138V19.2616Z" fill="#ED412C"/>
<path d="M18.1302 16.3319H15.2002C15.0552 16.3319 14.9161 16.3895 14.8135 16.4921C14.7109 16.5946 14.6533 16.7337 14.6533 16.8788V19.8085C14.6533 19.9535 14.7109 20.0926 14.8135 20.1952C14.9161 20.2977 15.0552 20.3553 15.2002 20.3553H18.1302C18.2752 20.3553 18.4143 20.2977 18.5169 20.1952C18.6195 20.0926 18.6771 19.9535 18.6771 19.8085V16.8788C18.6771 16.7337 18.6195 16.5946 18.5169 16.4921C18.4143 16.3895 18.2752 16.3319 18.1302 16.3319ZM17.5833 19.2616H15.7471V17.4257H17.5833V19.2616Z" fill="#ED412C"/>
<path d="M24.8001 16.3319H21.8701C21.7251 16.3319 21.586 16.3895 21.4834 16.4921C21.3809 16.5946 21.3232 16.7337 21.3232 16.8788V19.8085C21.3232 19.9535 21.3809 20.0926 21.4834 20.1952C21.586 20.2977 21.7251 20.3553 21.8701 20.3553H24.8001C24.9452 20.3553 25.0843 20.2977 25.1868 20.1952C25.2894 20.0926 25.347 19.9535 25.347 19.8085V16.8788C25.347 16.807 25.3328 16.7358 25.3054 16.6695C25.2779 16.6031 25.2376 16.5429 25.1868 16.4921C25.136 16.4413 25.0757 16.401 25.0094 16.3735C24.943 16.346 24.8719 16.3319 24.8001 16.3319ZM24.2532 19.2616H22.417V17.4257H24.2532V19.2616Z" fill="#ED412C"/>
<path d="M31.4684 16.3319H28.5391C28.394 16.3319 28.2549 16.3895 28.1524 16.4921C28.0498 16.5946 27.9922 16.7337 27.9922 16.8788V19.8085C27.9922 19.9535 28.0498 20.0926 28.1524 20.1952C28.2549 20.2977 28.394 20.3553 28.5391 20.3553H31.4684C31.6135 20.3553 31.7526 20.2977 31.8551 20.1952C31.9577 20.0926 32.0153 19.9535 32.0153 19.8085V16.8788C32.0153 16.7337 31.9577 16.5946 31.8551 16.4921C31.7526 16.3895 31.6135 16.3319 31.4684 16.3319ZM30.9216 19.2616H29.0859V17.4257H30.9222L30.9216 19.2616Z" fill="#ED412C"/>
<path d="M11.4606 21.4173H8.53125C8.38621 21.4173 8.24711 21.4749 8.14455 21.5774C8.04199 21.68 7.98438 21.8191 7.98438 21.9641V24.8938C7.98438 25.0389 8.04199 25.178 8.14455 25.2805C8.24711 25.3831 8.38621 25.4407 8.53125 25.4407H11.4613C11.6063 25.4407 11.7454 25.3831 11.8479 25.2805C11.9505 25.178 12.0081 25.0389 12.0081 24.8938V21.9641C12.0081 21.8923 11.994 21.8211 11.9664 21.7547C11.9389 21.6883 11.8986 21.628 11.8477 21.5772C11.7969 21.5264 11.7365 21.4861 11.6701 21.4587C11.6037 21.4313 11.5325 21.4172 11.4606 21.4173ZM10.9138 24.3469H9.0775V22.511H10.9138V24.3469Z" fill="#ED412C"/>
<path d="M18.1302 21.4173H15.2002C15.0552 21.4173 14.9161 21.4749 14.8135 21.5774C14.7109 21.68 14.6533 21.8191 14.6533 21.9641V24.8938C14.6533 25.0389 14.7109 25.178 14.8135 25.2805C14.9161 25.3831 15.0552 25.4407 15.2002 25.4407H18.1302C18.2752 25.4407 18.4143 25.3831 18.5169 25.2805C18.6195 25.178 18.6771 25.0389 18.6771 24.8938V21.9641C18.6771 21.8191 18.6195 21.68 18.5169 21.5774C18.4143 21.4749 18.2752 21.4173 18.1302 21.4173ZM17.5833 24.3469H15.7471V22.511H17.5833V24.3469Z" fill="#ED412C"/>
<path d="M24.8001 21.4173H21.8701C21.7251 21.4173 21.586 21.4749 21.4834 21.5774C21.3809 21.68 21.3232 21.8191 21.3232 21.9641V24.8938C21.3232 25.0389 21.3809 25.178 21.4834 25.2805C21.586 25.3831 21.7251 25.4407 21.8701 25.4407H24.8001C24.9452 25.4407 25.0843 25.3831 25.1868 25.2805C25.2894 25.178 25.347 25.0389 25.347 24.8938V21.9641C25.347 21.8923 25.3328 21.8212 25.3054 21.7548C25.2779 21.6885 25.2376 21.6282 25.1868 21.5774C25.136 21.5266 25.0757 21.4864 25.0094 21.4589C24.943 21.4314 24.8719 21.4173 24.8001 21.4173ZM24.2532 24.3469H22.417V22.511H24.2532V24.3469Z" fill="#ED412C"/>
<path d="M31.4684 21.4173H28.5391C28.394 21.4173 28.2549 21.4749 28.1524 21.5774C28.0498 21.68 27.9922 21.8191 27.9922 21.9641V24.8938C27.9922 25.0389 28.0498 25.178 28.1524 25.2805C28.2549 25.3831 28.394 25.4407 28.5391 25.4407H31.4684C31.6135 25.4407 31.7526 25.3831 31.8551 25.2805C31.9577 25.178 32.0153 25.0389 32.0153 24.8938V21.9641C32.0153 21.8191 31.9577 21.68 31.8551 21.5774C31.7526 21.4749 31.6135 21.4173 31.4684 21.4173ZM30.9216 24.3469H29.0859V22.511H30.9222L30.9216 24.3469Z" fill="#ED412C"/>
<path d="M11.4606 26.5028H8.53125C8.38621 26.5028 8.24711 26.5604 8.14455 26.6629C8.04199 26.7655 7.98438 26.9046 7.98438 27.0496V29.9793C7.98438 30.1244 8.04199 30.2635 8.14455 30.366C8.24711 30.4686 8.38621 30.5262 8.53125 30.5262H11.4613C11.6063 30.5262 11.7454 30.4686 11.8479 30.366C11.9505 30.2635 12.0081 30.1244 12.0081 29.9793V27.0496C12.0081 26.9778 11.994 26.9066 11.9664 26.8402C11.9389 26.7738 11.8986 26.7135 11.8477 26.6627C11.7969 26.6119 11.7365 26.5716 11.6701 26.5442C11.6037 26.5168 11.5325 26.5027 11.4606 26.5028ZM10.9138 29.4324H9.0775V27.5965H10.9138V29.4324Z" fill="#ED412C"/>
<path d="M18.1302 26.5028H15.2002C15.0552 26.5028 14.9161 26.5604 14.8135 26.6629C14.7109 26.7655 14.6533 26.9046 14.6533 27.0496V29.9793C14.6533 30.1244 14.7109 30.2635 14.8135 30.366C14.9161 30.4686 15.0552 30.5262 15.2002 30.5262H18.1302C18.2752 30.5262 18.4143 30.4686 18.5169 30.366C18.6195 30.2635 18.6771 30.1244 18.6771 29.9793V27.0496C18.6771 26.9046 18.6195 26.7655 18.5169 26.6629C18.4143 26.5604 18.2752 26.5028 18.1302 26.5028ZM17.5833 29.4324H15.7471V27.5965H17.5833V29.4324Z" fill="#ED412C"/>
<path d="M24.8001 26.5028H21.8701C21.7251 26.5028 21.586 26.5604 21.4834 26.6629C21.3809 26.7655 21.3232 26.9046 21.3232 27.0496V29.9793C21.3232 30.1244 21.3809 30.2635 21.4834 30.366C21.586 30.4686 21.7251 30.5262 21.8701 30.5262H24.8001C24.9452 30.5262 25.0843 30.4686 25.1868 30.366C25.2894 30.2635 25.347 30.1244 25.347 29.9793V27.0496C25.347 26.9778 25.3328 26.9067 25.3054 26.8404C25.2779 26.774 25.2376 26.7137 25.1868 26.6629C25.136 26.6121 25.0757 26.5719 25.0094 26.5444C24.943 26.5169 24.8719 26.5028 24.8001 26.5028ZM24.2532 29.4324H22.417V27.5965H24.2532V29.4324Z" fill="#ED412C"/>
<path d="M31.4684 26.5028H28.5391C28.394 26.5028 28.2549 26.5604 28.1524 26.6629C28.0498 26.7655 27.9922 26.9046 27.9922 27.0496V29.9793C27.9922 30.1244 28.0498 30.2635 28.1524 30.366C28.2549 30.4686 28.394 30.5262 28.5391 30.5262H31.4684C31.6135 30.5262 31.7526 30.4686 31.8551 30.366C31.9577 30.2635 32.0153 30.1244 32.0153 29.9793V27.0496C32.0153 26.9046 31.9577 26.7655 31.8551 26.6629C31.7526 26.5604 31.6135 26.5028 31.4684 26.5028ZM30.9216 29.4324H29.0859V27.5965H30.9222L30.9216 29.4324Z" fill="#ED412C"/>
</svg>
