<svg width="60" height="60" viewBox="0 0 60 60" fill="none" xmlns="http://www.w3.org/2000/svg">
<circle opacity="0.1" cx="30" cy="30" r="30" fill="#ED412C"/>
<path d="M41.05 20.7628C40.4116 20.1241 39.6535 19.6174 38.8192 19.2717C37.9849 18.926 37.0906 18.748 36.1875 18.748C35.2844 18.748 34.3902 18.926 33.5558 19.2717C32.7215 19.6174 31.9635 20.1241 31.325 20.7628L30 22.0878L28.675 20.7628C27.3854 19.4732 25.6363 18.7487 23.8125 18.7487C21.9887 18.7487 20.2396 19.4732 18.95 20.7628C17.6604 22.0524 16.9359 23.8015 16.9359 25.6253C16.9359 27.4491 17.6604 29.1982 18.95 30.4878L20.275 31.8128L30 41.5378L39.725 31.8128L41.05 30.4878C41.6888 29.8494 42.1955 29.0913 42.5412 28.257C42.8869 27.4227 43.0648 26.5284 43.0648 25.6253C43.0648 24.7222 42.8869 23.828 42.5412 22.9936C42.1955 22.1593 41.6888 21.4013 41.05 20.7628V20.7628Z" stroke="#ED412C" stroke-width="3" stroke-linecap="round" stroke-linejoin="round"/>
</svg>
