<svg width="20" height="24" viewBox="0 0 23 26" fill="none" xmlns="http://www.w3.org/2000/svg">
<path d="M1 11.0846C1 5.58392 5.58391 1 11.0846 1C16.5853 1 21.1692 5.58392 21.1692 11.0846V11.2156C20.9073 14.8827 19.2047 18.2878 16.5853 20.7763C15.1446 22.2169 13.573 23.5266 11.8704 24.7053C11.4775 25.0982 10.6917 25.0982 10.2988 24.7053C7.81038 23.0027 5.45294 20.9073 3.61938 18.5499C2.04775 16.4544 1.13097 13.835 1 11.0846Z" stroke="#200E32" stroke-width="2" stroke-miterlimit="10" stroke-linecap="round" stroke-linejoin="round"/>
<path d="M11.0845 14.6217C12.8928 14.6217 14.3587 13.1558 14.3587 11.3475C14.3587 9.53916 12.8928 8.07324 11.0845 8.07324C9.27622 8.07324 7.8103 9.53916 7.8103 11.3475C7.8103 13.1558 9.27622 14.6217 11.0845 14.6217Z" stroke="#200E32" stroke-width="2" stroke-miterlimit="10" stroke-linecap="round" stroke-linejoin="round"/>
</svg>
