<svg width="60" height="60" viewBox="0 0 60 60" fill="none" xmlns="http://www.w3.org/2000/svg">
<circle opacity="0.1" cx="30" cy="30" r="30" fill="#ED412C"/>
<g clip-path="url(#clip0)">
<path d="M23.25 43.25C23.9404 43.25 24.5 42.6904 24.5 42C24.5 41.3096 23.9404 40.75 23.25 40.75C22.5596 40.75 22 41.3096 22 42C22 42.6904 22.5596 43.25 23.25 43.25Z" stroke="#ED412C" stroke-width="3" stroke-linecap="round" stroke-linejoin="round"/>
<path d="M37 43.25C37.6904 43.25 38.25 42.6904 38.25 42C38.25 41.3096 37.6904 40.75 37 40.75C36.3096 40.75 35.75 41.3096 35.75 42C35.75 42.6904 36.3096 43.25 37 43.25Z" stroke="#ED412C" stroke-width="3" stroke-linecap="round" stroke-linejoin="round"/>
<path d="M13.25 17H18.25L21.6 33.7375C21.7143 34.313 22.0274 34.8299 22.4844 35.1979C22.9415 35.5658 23.5134 35.7612 24.1 35.75H36.25C36.8366 35.7612 37.4085 35.5658 37.8656 35.1979C38.3226 34.8299 38.6357 34.313 38.75 33.7375L40.75 23.25H19.5" stroke="#ED412C" stroke-width="3" stroke-linecap="round" stroke-linejoin="round"/>
</g>
<defs>
<clipPath id="clip0">
<rect width="30" height="30" fill="white" transform="translate(12 15.75)"/>
</clipPath>
</defs>
</svg>
