<svg width="15" height="15" viewBox="0 0 15 15" fill="none" xmlns="http://www.w3.org/2000/svg">
<path d="M9.53308 1.25C9.87897 1.25001 10.2127 1.3775 10.4705 1.60811C10.7284 1.83871 10.8921 2.15624 10.9306 2.5H11.7231C11.9975 2.50017 12.2618 2.60346 12.4635 2.78939C12.6653 2.97531 12.7899 3.23029 12.8125 3.50375L12.8162 3.59375V5.46875C12.8162 5.98759 12.6177 6.48677 12.2614 6.86389C11.9051 7.24102 11.418 7.4675 10.9 7.49687L10.7687 7.50062C10.5604 8.15001 10.1719 8.72684 9.64837 9.16391C9.12488 9.60099 8.48796 9.88033 7.81183 9.96937V10.9375H8.90745C9.42618 10.9376 9.9252 11.1362 10.3022 11.4925C10.6792 11.8488 10.9056 12.3359 10.935 12.8537L10.9387 12.9687V13.2812C10.9387 13.3946 10.8976 13.5041 10.823 13.5895C10.7484 13.6749 10.6454 13.7304 10.5331 13.7456L10.47 13.75H4.2187C4.10532 13.7501 3.99573 13.7092 3.91023 13.6347C3.82473 13.5603 3.76912 13.4573 3.7537 13.345L3.74995 13.2812V12.9687C3.74991 12.45 3.94833 11.9509 4.30452 11.5738C4.66071 11.1967 5.14768 10.9702 5.66558 10.9406L5.7812 10.9375H6.87495V9.96937C6.19904 9.8801 5.56239 9.60067 5.03913 9.16361C4.51588 8.72654 4.12753 8.14983 3.91933 7.50062L3.90308 7.5C3.36435 7.5 2.8477 7.28599 2.46677 6.90506C2.08583 6.52413 1.87183 6.00747 1.87183 5.46875V3.59375C1.87183 2.99 2.36183 2.5 2.96558 2.5H3.75808C3.79652 2.15614 3.96039 1.83852 4.21834 1.6079C4.47628 1.37728 4.81019 1.24986 5.1562 1.25H9.53308ZM8.90808 11.875H5.7812C5.53427 11.8749 5.29457 11.9583 5.10109 12.1117C4.90761 12.2652 4.77173 12.4795 4.71558 12.72L4.69808 12.8125H9.99057C9.95531 12.5685 9.83866 12.3436 9.65952 12.1742C9.48039 12.0048 9.24929 11.9009 9.0037 11.8794L8.90808 11.875ZM9.53308 2.1875H5.1562C5.03188 2.1875 4.91265 2.23689 4.82474 2.32479C4.73684 2.4127 4.68745 2.53193 4.68745 2.65625V6.405C4.69815 7.10267 4.98281 7.76815 5.47997 8.25774C5.97712 8.74732 6.64688 9.02175 7.34464 9.02175C8.04239 9.02175 8.71215 8.74732 9.20931 8.25774C9.70647 7.76815 9.99113 7.10267 10.0018 6.405V2.65625C10.0018 2.53193 9.95244 2.4127 9.86453 2.32479C9.77662 2.23689 9.6574 2.1875 9.53308 2.1875ZM11.7231 3.4375H10.9393V6.55187C11.1838 6.51713 11.4093 6.4007 11.5792 6.22152C11.749 6.04234 11.8533 5.81095 11.875 5.565L11.8793 5.46875V3.59375C11.8793 3.55855 11.8673 3.5244 11.8454 3.49683C11.8235 3.46927 11.793 3.4499 11.7587 3.44187L11.7231 3.4375ZM3.74995 3.4375H2.96558C2.92414 3.4375 2.88439 3.45396 2.85509 3.48326C2.82579 3.51257 2.80933 3.55231 2.80933 3.59375V5.46875C2.80929 5.73233 2.90444 5.98705 3.07726 6.18606C3.25009 6.38507 3.48897 6.51497 3.74995 6.55187V3.4375Z" fill="#141414"/>
</svg>
